<?xml version="1.0" standalone="no"?>
<!DOCTYPE svg PUBLIC "-//W3C//DTD SVG 1.1//EN" "http://www.w3.org/Graphics/SVG/1.1/DTD/svg11.dtd">
<svg id="G%27s%20Logo%3A%20Vector" viewBox="0 0 1000 1000" style="background-color:#ffffff00" version="1.1" xmlns="http://www.w3.org/2000/svg" xmlns:xlink="http://www.w3.org/1999/xlink" xml:space="preserve" x="0px" y="0px" width="1000px" height="1000px">
	<g id="Logo">
		<path id="GSLOGO" d="M 694.5629 39.2757 C 633.4754 12.3417 567.8716 0 499.9903 0 C 433.2576 0 367.6438 12.3417 305.4274 39.2757 C 245.4691 63.969 193.4338 99.8842 147.0537 145.9003 C 100.6736 191.917 65.6036 244.6642 39.5861 305.2727 C 13.5686 367.0014 0 432.1002 0 500.5601 C 0 567.9092 13.5686 632.9984 39.5861 694.7369 C 65.6036 754.2154 100.6736 808.083 147.0537 854.0994 C 193.4338 900.1158 245.4691 936.0309 305.4274 960.734 C 367.6438 986.5378 433.2576 1000 499.9903 1000 C 567.8716 1000 633.4754 986.5378 694.5629 960.734 C 754.5212 936.0309 806.5566 900.1158 854.0754 854.0994 C 899.3167 808.083 935.5253 754.2154 960.4043 694.7369 C 986.4314 632.9984 1000 567.9092 1000 500.5601 C 1000 432.1002 986.4314 367.0014 960.4043 305.2727 C 935.5253 244.6642 899.3167 191.917 854.0754 145.9003 C 806.5566 99.8842 754.5212 63.969 694.5629 39.2757 ZM 499.9903 26.9338 C 564.4843 26.9338 626.701 39.2757 684.3816 63.969 C 740.9526 87.5422 791.8395 122.3273 834.842 166.1032 C 877.8251 209.8695 911.7562 259.2563 935.5253 316.504 C 960.4043 374.8624 973.9725 435.4706 973.9725 500.5601 C 973.9725 564.5388 960.4043 625.1471 935.5253 684.6259 C 911.7562 740.7532 877.8251 791.2508 834.842 835.0266 C 791.8395 878.7929 740.9526 911.3473 684.3816 936.0309 C 626.701 960.734 564.4843 973.0759 499.9903 973.0759 C 435.5155 973.0759 374.4281 960.734 315.6087 936.0309 C 259.0473 911.3473 209.2702 878.7929 165.1578 835.0266 C 122.1652 791.2508 88.2341 740.7532 64.4745 684.6259 C 39.5861 625.1471 27.1468 564.5388 27.1468 500.5601 C 27.1468 435.4706 39.5861 374.8624 64.4745 316.504 C 88.2341 259.2563 122.1652 209.8695 165.1578 166.1032 C 209.2702 122.3273 259.0473 87.5422 315.6087 63.969 C 374.4281 39.2757 435.5155 26.9338 499.9903 26.9338 ZM 348.4105 466.8855 C 351.5644 497.11 353.7377 512.8179 354.0325 514.015 L 354.0657 514.0319 C 354.0657 514.1121 354.0552 514.1073 354.0325 514.015 C 337.0844 505.0399 324.6481 496.0725 320.1348 485.9778 C 314.4796 476.9966 309.9535 456.7937 304.2983 426.4896 C 299.7722 400.6761 292.9782 382.7137 283.9261 371.492 C 278.2806 364.761 271.4866 361.3906 264.7023 361.3906 C 262.4443 361.3906 262.4443 363.6407 261.3055 364.761 C 261.3055 368.1216 262.4443 377.1028 264.7023 391.6949 C 268.0993 405.1667 269.2284 414.138 268.0993 417.5084 C 266.9702 418.6287 266.9702 427.6099 268.0993 443.322 L 271.4866 482.6075 C 259.0473 474.7465 252.2533 465.7653 251.1242 453.4234 L 251.1242 450.0627 L 251.1242 448.9328 L 251.1242 446.6923 C 246.5982 439.9612 245.4691 420.8788 246.5982 386.084 C 247.7272 353.5392 248.8661 336.6971 251.1242 335.5768 C 254.5212 332.2065 254.5212 322.1149 249.9952 307.5229 C 248.8661 300.7821 245.4691 297.4216 242.0721 296.2917 C 238.6848 295.1714 234.1589 299.6621 231.9007 309.7633 C 227.3746 322.1149 225.1067 332.2065 223.9776 342.3079 C 223.9776 347.9284 219.4515 360.2704 211.5284 380.4732 L 205.8732 424.2395 C 193.4338 398.4356 192.3047 370.3718 200.218 341.1876 C 205.8732 319.8647 213.7963 303.0322 225.1067 289.5606 C 238.6848 274.9686 248.8661 261.5064 254.5212 250.2751 L 254.5212 248.0346 C 254.5212 243.544 259.0473 234.563 265.8314 219.9806 L 281.6679 195.2873 C 285.0648 190.7967 286.194 186.3061 285.0648 182.9454 C 283.9261 179.5751 281.6679 176.2047 278.2806 175.0844 C 266.9702 172.844 257.9182 179.5751 248.8661 196.4076 C 242.0721 213.2399 234.1589 225.5915 227.3746 234.563 C 217.1933 248.0346 210.3993 250.2751 207.0121 236.8131 C 211.5284 224.4712 214.9254 209.8695 214.9254 191.917 C 214.9254 184.0657 213.7963 178.4548 210.3993 176.2047 C 205.8732 175.0844 201.3472 176.2047 195.6919 181.8155 L 193.4338 185.1859 C 178.7264 221.1008 170.813 248.0346 171.9421 265.997 L 175.3391 280.5794 C 176.4682 286.1903 176.4682 290.6808 176.4682 292.931 C 168.5451 326.5958 162.8899 342.3079 161.761 342.3079 C 156.1059 335.5768 152.7088 322.1149 153.838 304.1525 L 143.6567 272.7281 C 138.0015 258.136 132.3562 251.3953 125.5622 250.2751 C 118.7682 249.1548 116.51 252.5252 116.51 259.2563 C 116.51 291.8011 117.6391 318.7445 118.7682 342.3079 C 121.0361 358.0298 123.3041 369.2515 124.4331 372.6122 C 126.6913 377.1028 131.2174 382.7137 139.1405 388.3341 C 145.9246 392.8152 150.4507 397.3058 151.5798 400.6761 C 167.416 450.0627 180.9943 480.367 192.3047 490.4685 C 194.5629 492.7089 199.089 493.8291 205.8732 496.0793 C 210.3993 498.3197 213.7963 501.6803 218.3224 505.0507 C 229.6328 520.7726 246.5982 530.8738 268.0993 535.3547 L 289.5909 538.7252 C 296.3752 540.9656 299.7722 542.0859 300.9013 544.3359 C 305.4274 552.1873 328.0482 561.1685 367.6438 571.27 L 383.4803 589.2324 C 367.6438 578.0107 347.2814 569.0295 323.5221 564.5388 C 314.4796 561.1685 304.2983 560.0482 292.9782 558.928 C 274.8836 558.928 266.9702 562.2984 268.0993 569.0295 C 274.8836 602.6943 285.0648 627.3876 297.5043 646.4702 C 313.3505 668.9136 335.9613 683.5056 364.2468 690.2367 L 384.6094 694.7369 C 393.6615 695.8572 399.3167 699.2177 400.4458 702.5881 C 406.101 716.0502 400.4458 751.9749 383.4803 812.5737 L 367.6438 874.312 C 361.9886 894.505 360.8597 906.8566 361.9886 910.2269 L 385.7385 929.2999 L 411.7562 945.0121 C 423.0666 953.9932 441.1707 960.734 462.6622 966.3448 C 472.8435 967.465 478.4987 967.465 479.6374 964.0947 C 486.4218 967.465 489.8187 965.2149 492.0769 960.734 C 506.7843 964.0947 548.6382 951.7528 616.5003 924.8091 L 635.7532 918.0782 C 640.2694 918.0782 644.7858 916.9579 647.0634 911.3473 C 650.4506 903.4862 647.0634 878.7929 636.8821 839.5171 L 625.5524 812.5737 C 625.5524 789.0103 621.0362 764.3168 611.9839 738.5031 C 610.8548 735.1327 610.8548 729.5219 610.8548 723.911 C 613.113 714.93 610.8548 704.8286 607.4676 694.7369 C 645.9149 701.4679 679.8652 684.6259 710.409 644.2201 C 721.7194 629.6377 730.7716 613.9257 736.4169 597.0836 C 742.0818 583.6215 744.34 573.5201 743.2109 567.9092 C 740.9526 562.2984 735.2878 558.928 723.9776 558.928 C 713.7963 557.7981 702.486 558.928 688.9174 562.2984 C 654.967 570.1497 632.3465 582.4916 621.0362 599.3338 L 604.0609 619.5365 L 604.0609 606.0646 C 605.2094 601.574 627.8301 585.862 673.0712 558.928 L 676.4779 556.6779 L 697.9501 549.9468 C 709.2605 545.4562 716.0545 542.0859 717.1837 540.9656 C 730.7716 540.9656 748.8564 533.1143 771.4966 518.5225 C 791.8395 505.0507 805.4275 493.8291 811.0924 482.6075 L 818.9958 473.6263 C 833.7129 459.0342 843.8942 444.4518 846.1524 429.86 C 847.2816 426.4896 848.4106 421.9991 852.9464 416.3882 C 855.2046 411.8976 857.4628 407.407 857.4628 401.7964 C 857.4628 397.3058 860.8501 390.5746 867.644 380.4732 L 888.0064 347.9284 C 891.3937 306.4026 892.5228 277.2187 891.3937 261.5064 C 890.2646 244.6642 884.6191 237.9333 876.696 243.544 C 871.0311 246.9144 864.2567 257.0158 860.8501 273.8484 C 856.3337 289.5606 854.0754 305.2727 855.2046 322.1149 L 852.9464 334.4566 C 845.0233 329.9662 840.4875 317.6243 838.2293 298.5418 C 840.4875 288.4404 841.6166 273.8484 841.6166 257.0158 C 840.4875 233.4428 837.1002 215.49 829.1771 204.2587 C 822.4025 195.2873 818.9958 182.9454 816.7379 168.3437 L 812.2214 157.122 L 799.7626 156.0018 C 795.2462 159.3625 791.8395 166.1032 791.8395 176.2047 C 791.8395 182.9454 792.988 191.917 796.3752 204.2587 L 803.1693 244.6642 C 802.0402 245.7845 800.9111 245.7845 799.7626 244.6642 C 796.3752 243.544 791.8395 239.0536 788.4522 233.4428 C 785.0649 226.7117 782.8067 221.1008 782.8067 217.7305 C 781.6776 207.629 776.0128 196.4076 765.8316 186.3061 C 754.5212 172.844 743.2109 168.3437 733.0295 171.7141 C 723.9776 173.9642 723.9776 179.5751 729.6426 188.5466 L 744.34 210.9994 C 748.8564 219.9806 752.2631 228.9522 752.2631 236.8131 C 754.5212 258.136 766.9608 278.3389 791.8395 299.6621 L 798.6335 306.4026 C 820.1249 354.6595 823.5316 391.6949 808.8147 418.6287 C 804.2983 387.2043 796.3752 359.1501 786.194 335.5768 L 776.0128 308.6431 C 771.4966 299.6621 768.0896 297.4216 763.5732 300.7821 C 754.5212 316.504 753.3922 335.5768 759.0374 355.7798 L 765.8316 381.5934 C 768.0896 391.6949 769.2188 401.7964 769.2188 410.7773 L 763.5732 444.4518 C 757.9083 466.8855 751.1145 476.9966 742.0818 476.9966 C 745.469 465.7653 747.7272 444.4518 748.8564 415.2679 L 751.1145 378.223 L 748.8564 367.0014 C 747.7272 361.3906 746.5981 360.2704 743.2109 364.761 C 737.546 364.761 733.0295 369.2515 727.3649 378.223 C 722.8484 384.9638 719.4612 397.3058 716.0545 413.0178 L 707.0023 453.4234 C 700.2277 487.0981 684.3816 503.9304 661.7609 506.1709 L 664.019 473.6263 C 664.019 460.1545 665.1481 450.0627 666.2772 442.2017 L 670.813 418.6287 C 673.0712 404.0465 674.2003 395.0652 673.0712 392.8152 L 665.1481 392.8152 L 658.3738 399.5559 C 658.3738 399.5559 657.225 400.6761 654.967 401.7964 C 639.1403 425.3694 630.0883 454.5436 627.8301 487.0981 C 615.3712 533.1143 599.5445 552.1873 583.6982 545.4562 C 583.6982 544.3359 582.5692 542.0859 580.311 542.0859 C 575.7946 540.9656 570.1297 540.9656 562.2066 542.0859 L 559.9484 542.0859 L 555.4323 543.2157 L 523.7596 547.6967 C 520.3528 545.4562 511.3006 544.3359 495.474 544.3359 L 464.9301 546.5765 C 457.0072 539.8453 447.9647 538.7252 438.9126 544.3359 L 437.7835 544.3359 C 410.6271 537.6049 394.7906 520.7726 389.1354 492.7089 L 383.4803 455.6735 C 380.0832 442.2017 376.6863 429.86 371.0311 423.1193 C 360.8597 407.407 351.8075 399.5559 346.1523 401.7964 C 342.7553 402.9166 340.4971 405.1667 340.4971 410.7773 L 340.4971 411.8976 L 348.4105 466.8855 ZM 605.2094 709.3192 L 605.2094 725.0313 C 604.0609 730.6421 604.0609 736.2626 605.2094 740.7532 C 614.2421 766.5573 618.778 791.2508 618.778 813.6939 L 627.8301 835.0266 C 631.2175 841.7575 634.6242 854.0994 638.0112 872.062 C 641.3985 891.1442 642.5276 904.6066 640.2694 909.0972 L 638.0112 911.3473 L 636.8821 911.3473 L 631.2175 904.6066 C 630.0883 900.1158 631.2175 892.2646 631.2175 879.9229 L 627.8301 877.6728 L 623.2943 852.9792 C 619.907 850.7388 618.778 846.2481 617.6489 841.7575 C 616.5003 836.1467 614.2421 836.1467 614.2421 839.5171 C 613.113 845.1279 613.113 851.8589 613.113 859.72 L 613.113 881.0432 C 606.3384 863.0806 602.9317 845.1279 602.9317 826.0453 C 608.5967 808.083 610.8548 791.2508 606.3384 778.9089 L 601.8027 764.3168 C 599.5445 759.8262 599.5445 756.4558 598.4153 753.0951 C 597.2863 744.1139 599.5445 729.5219 605.2094 709.3192 ZM 539.5861 804.7224 C 541.8443 808.083 541.8443 811.4534 536.1989 812.5737 C 512.4492 815.944 493.206 815.944 478.4987 811.4534 C 476.2405 804.7224 479.6374 801.352 487.5508 803.6021 L 539.5861 804.7224 ZM 581.4401 805.8426 C 585.9759 810.3332 587.105 817.0641 581.4401 826.0453 C 578.0528 822.6749 578.0528 815.944 581.4401 805.8426 ZM 592.7504 774.4183 C 598.4153 786.7698 599.5445 799.1116 596.1572 812.5737 C 588.2341 794.6209 585.9759 781.1493 592.7504 774.4183 ZM 585.9759 906.8566 C 572.3879 869.8213 569.0007 848.4885 574.6461 845.1279 C 583.6982 845.1279 587.105 866.4509 585.9759 906.8566 ZM 509.0425 868.7012 C 510.1716 876.5525 510.1716 888.8942 507.9134 903.4862 L 506.7843 933.7904 L 507.9134 948.3824 C 506.7843 953.9932 505.6552 955.1135 503.397 952.873 C 502.2679 950.6229 499.9903 943.8918 498.8612 932.6702 C 497.7321 924.8091 498.8612 911.3473 499.9903 892.2646 C 501.1194 875.4324 501.1194 865.3308 498.8612 861.9604 L 499.9903 836.1467 C 499.9903 826.0453 503.397 837.267 509.0425 868.7012 ZM 385.7385 590.3526 L 390.2743 592.593 C 402.7137 600.4538 409.498 607.1849 410.6271 612.8054 C 403.8428 603.8242 394.7906 595.9634 385.7385 590.3526 ZM 382.3511 656.5717 C 383.4803 654.3312 383.4803 652.0811 382.3511 652.0811 L 366.5147 650.9608 C 363.1177 649.8406 359.7209 647.5905 357.4627 644.2201 C 349.5493 637.489 345.0135 630.7579 343.8844 626.2673 C 342.7553 620.6567 347.2814 622.897 357.4627 632.9984 C 359.7209 636.3688 364.2468 640.8594 372.1699 645.35 L 386.8773 653.2109 L 383.4803 657.6919 L 382.3511 656.5717 ZM 449.0938 661.0623 L 442.3095 663.3027 L 435.5155 658.8218 C 435.5155 655.4515 438.9126 654.3312 445.6968 656.5717 L 449.0938 661.0623 ZM 452.6949 905.45 C 452.5574 905.5019 452.4811 905.2225 452.4811 904.6066 L 452.6949 905.45 ZM 449.0938 893.3849 L 451.3521 904.6066 C 453.4679 908.7961 453.6102 909.0778 452.6949 905.45 C 453.3102 905.2176 455.1617 898.3743 457.0072 885.5336 L 460.4042 850.7388 C 464.9301 832.786 469.4464 826.0453 473.9823 829.4156 L 470.5853 888.8942 C 467.1883 887.7742 464.9301 890.0145 461.5331 895.6254 C 460.4042 901.2457 459.2751 905.7365 459.2751 910.2269 L 453.6199 955.1135 C 447.9647 956.2434 444.5677 953.9932 444.5677 945.0121 L 445.6968 928.1795 C 445.6968 921.4484 445.6968 915.8375 444.5677 911.3473 C 442.3095 904.6066 440.0416 910.2269 437.7835 928.1795 L 435.5155 947.2622 C 432.1285 949.5027 429.8606 945.0121 426.4636 936.0309 C 427.5927 938.281 427.5927 932.6702 429.8606 918.0782 L 429.8606 905.7365 L 434.3867 888.8942 C 437.7835 877.6728 438.9126 868.7012 437.7835 863.0806 C 434.3867 855.2197 437.7835 839.5171 444.5677 815.944 C 449.0938 813.6939 450.2229 826.0453 450.2229 855.2197 C 445.6968 865.3308 445.6968 878.7929 449.0938 893.3849 ZM 484.1635 910.2269 L 484.1635 886.654 C 481.8956 869.8213 483.0345 858.5901 485.2926 854.0994 C 495.474 868.7012 496.603 901.2457 489.8187 953.9932 C 488.6896 953.9932 487.5508 955.1135 486.4218 956.2434 C 479.6374 952.873 479.6374 937.1607 484.1635 910.2269 ZM 476.2405 955.1135 L 472.8435 956.2434 C 471.7144 956.2434 471.7144 958.4838 471.7144 960.734 L 466.0591 960.734 C 468.3174 927.0594 470.5853 911.3473 475.1114 914.7177 C 476.2405 923.689 476.2405 937.1607 476.2405 955.1135 ZM 425.3345 872.062 C 420.8084 837.267 421.9375 818.194 428.7315 812.5737 C 433.2576 813.6939 433.2576 832.786 425.3345 872.062 ZM 803.1693 162.7329 L 806.5566 161.6126 L 809.9438 169.464 C 812.2214 185.1859 816.7379 198.648 823.5316 207.629 C 829.1771 216.6102 833.7129 231.2023 833.7129 251.3953 C 834.842 270.4876 833.7129 286.1903 830.3062 298.5418 C 833.7129 322.1149 840.4875 336.6971 850.6687 341.1876 C 850.6687 344.558 850.6687 346.7985 851.7979 346.7985 C 854.0754 346.7985 855.2046 344.558 857.4628 340.0674 C 859.721 336.6971 860.8501 329.9662 861.9791 322.1149 C 861.9791 309.7633 863.1277 295.1714 866.515 279.4592 C 871.0311 260.3765 875.567 250.2751 881.2124 248.0346 C 884.6191 250.2751 885.7482 268.2375 884.6191 298.5418 L 881.2124 345.6783 L 864.2567 373.7325 C 855.2046 387.2043 850.6687 396.1855 850.6687 401.7964 C 850.6687 405.1667 848.4106 409.6571 846.1524 415.2679 L 840.4875 428.7299 C 837.1002 439.9612 831.4352 450.0627 823.5316 459.0342 L 805.4275 479.2468 C 798.6335 489.3386 785.0649 501.6803 764.7025 515.152 C 740.9526 528.6237 723.9776 535.3547 713.7963 533.1143 L 712.6672 539.8453 L 711.5381 536.475 C 709.2605 537.6049 703.6151 540.9656 693.4338 544.3359 L 674.2003 549.9468 L 671.9421 552.1873 L 630.0883 576.8807 C 609.7257 590.3526 598.4153 599.3338 597.2863 606.0646 C 596.1572 613.9257 597.2863 620.6567 599.5445 622.897 C 602.9317 627.3876 608.5967 626.2673 615.3712 618.4163 L 626.701 602.6943 C 638.0112 585.862 658.3738 574.6403 690.0465 569.0295 L 721.7194 565.6591 C 730.7716 565.6591 735.2878 567.9092 736.4169 570.1497 C 737.546 574.6403 735.2878 583.6215 729.6426 597.0836 C 722.8484 612.8054 713.7963 627.3876 703.6151 640.8594 C 673.0712 680.1353 641.3985 695.8572 606.3384 687.9962 L 605.2094 684.6259 C 600.6735 677.8948 599.5445 684.6259 599.5445 704.8286 C 592.7504 723.911 584.8273 740.7532 574.6461 755.3356 C 571.2588 759.8262 567.8716 759.8262 564.4843 756.4558 L 557.6904 747.4843 C 555.4323 747.4843 555.4323 748.6045 555.4323 750.845 C 564.4843 767.6775 565.6133 781.1493 559.9484 787.89 C 554.3032 796.8614 544.1219 796.8614 529.405 789.0103 C 528.2759 787.89 528.2759 786.7698 529.405 785.6399 C 540.7152 783.3994 544.1219 776.6683 541.8443 765.437 C 540.7152 753.0951 536.1989 750.845 530.5341 756.4558 C 514.7073 758.7059 498.8612 759.8262 485.2926 757.5858 C 481.8956 754.2154 478.4987 754.2154 477.3695 757.5858 L 472.8435 769.9276 C 471.7144 777.7886 476.2405 783.3994 486.4218 785.6399 L 486.4218 792.3806 C 457.0072 800.2318 446.8259 789.0103 457.0072 757.5858 L 454.749 751.9749 L 450.2229 760.9464 C 437.7835 759.8262 430.9897 747.4843 427.5927 725.0313 C 423.0666 721.6609 419.6793 723.911 417.4114 734.0125 C 416.2823 730.6421 417.4114 742.9937 419.6793 771.0479 C 423.0666 784.5197 421.9375 793.5007 417.4114 796.8614 C 415.1532 797.9913 414.0241 796.8614 411.7562 794.6209 C 410.6271 791.2508 409.498 786.7698 409.498 781.1493 L 406.101 781.1493 C 402.7137 787.89 402.7137 795.7411 406.101 801.352 C 408.3689 805.8426 410.6271 812.5737 410.6271 821.5547 C 412.895 832.786 414.0241 842.8777 414.0241 852.9792 C 416.2823 881.0432 416.2823 906.8566 412.895 927.0594 C 406.101 927.0594 402.7137 923.689 403.8428 916.9579 C 408.3689 888.8942 408.3689 865.3308 402.7137 848.4885 L 402.7137 836.1467 C 399.3167 826.0453 395.9294 826.0453 393.6615 838.3969 L 385.7385 897.8754 C 384.6094 907.9769 381.2123 913.5875 376.6863 913.5875 L 368.7729 907.9769 C 367.6438 903.4862 369.902 894.505 373.299 881.0432 L 398.1876 786.7698 C 407.2398 746.364 410.6271 719.4204 408.3689 705.9584 L 409.498 704.8286 C 409.498 701.4679 410.6271 694.7369 414.0241 684.6259 C 414.0241 671.1637 416.2823 664.4327 423.0666 664.4327 C 423.0666 671.1637 425.3345 677.8948 430.9897 682.3854 C 437.7835 687.9962 445.6968 689.1165 453.6199 687.9962 L 457.0072 691.3666 C 459.2751 694.7369 461.5331 698.0975 462.6622 702.5881 L 464.9301 704.8286 L 469.4464 702.5881 C 471.7144 698.0975 471.7144 690.2367 468.3174 677.8948 C 463.7913 657.6919 458.1363 646.4702 449.0938 641.9796 C 441.1707 638.6093 433.2576 643.0999 425.3345 655.4515 C 424.2054 653.2109 423.0666 652.0811 421.9375 650.9608 L 417.4114 649.8406 C 419.6793 647.5905 419.6793 643.0999 418.5502 638.6093 C 407.2398 635.2389 399.3167 629.6377 394.7906 622.897 C 382.3511 609.435 369.902 600.4538 356.3336 595.9634 C 343.8844 591.4728 342.7553 594.8432 352.9366 604.9444 C 359.7209 607.1849 366.5147 612.8054 373.299 619.5365 C 378.9542 627.3876 380.0832 630.7579 375.5572 630.7579 L 363.1177 622.897 L 352.9366 611.6755 C 338.2292 599.3338 323.5221 590.3526 311.0826 585.862 C 297.5043 580.2511 292.9782 581.3713 296.3752 586.9822 C 295.2461 589.2324 299.7722 592.593 306.5565 598.2037 C 314.4796 603.8242 316.7378 607.1849 314.4796 609.435 C 305.4274 606.0646 302.0304 606.0646 304.2983 610.5553 C 307.6953 613.9257 314.4796 619.5365 326.9191 624.0271 C 316.7378 625.1471 313.3505 627.3876 316.7378 629.6377 C 320.1348 632.9984 325.79 634.1187 334.8322 635.2389 L 340.4971 643.0999 C 321.2639 643.0999 322.393 646.4702 345.0135 654.3312 L 354.0657 655.4515 L 358.5918 658.8218 C 349.5493 659.9421 346.1523 661.0623 348.4105 663.3027 L 365.3759 672.284 C 372.1699 672.284 378.9542 677.8948 388.0063 687.9962 L 382.3511 687.9962 L 365.3759 684.6259 C 338.2292 677.8948 317.8669 663.3027 303.1595 641.9796 C 289.5909 624.0271 280.5388 599.3338 274.8836 567.9092 C 276.0127 566.7794 279.4097 565.6591 286.194 565.6591 C 306.5565 565.6591 328.0482 570.1497 351.8075 580.2511 C 375.5572 590.3526 393.6615 602.6943 407.2398 618.4163 C 409.498 619.5365 410.6271 620.6567 412.895 619.5365 C 416.2823 618.4163 417.4114 616.1661 417.4114 613.9257 C 419.6793 610.5553 416.2823 603.8242 407.2398 597.0836 C 403.8428 593.7133 399.3167 590.3526 393.6615 585.862 C 389.1354 585.862 382.3511 579.1309 373.299 567.9092 L 371.0311 565.6591 C 365.3759 557.7981 361.9886 556.6779 363.1177 562.2984 C 329.1773 554.4374 309.9535 547.6967 306.5565 540.9656 C 304.2983 537.6049 298.6431 534.2346 289.5909 531.994 L 271.4866 528.6237 C 251.1242 525.2534 234.1589 516.2723 222.8485 501.6803 L 213.7963 492.7089 L 202.4859 488.2183 C 193.4338 483.7277 183.2525 469.1357 173.0712 441.0815 L 158.364 397.3058 C 156.1059 392.8152 151.5798 388.3341 144.7955 383.8339 C 138.0015 378.223 132.3562 373.7325 130.0883 370.3718 C 128.9592 367.0014 127.8204 356.9095 125.5622 341.1876 C 124.4331 318.7445 123.3041 291.8011 123.3041 259.2563 L 124.4331 257.0158 C 128.9592 257.0158 133.4853 264.8768 138.0015 278.3389 L 147.0537 305.2727 L 149.3118 326.5958 C 151.5798 336.6971 154.967 343.4378 157.2349 347.9284 L 165.1578 347.9284 C 168.5451 343.4378 171.9421 335.5768 176.4682 319.8647 L 183.2525 292.931 C 183.2525 289.5606 183.2525 285.07 182.1234 280.5794 C 177.5973 268.2375 178.7264 251.3953 183.2525 233.4428 L 199.089 187.4264 L 207.0121 182.9454 C 208.1411 185.1859 208.1411 187.4264 208.1411 191.917 C 208.1411 203.1387 207.0121 213.2399 203.6151 223.3413 L 199.089 236.8131 C 201.3472 246.9144 205.8732 251.3953 211.5284 252.5252 C 221.7194 253.6455 233.0298 241.3037 245.4691 216.6102 L 261.3055 191.917 C 265.8314 185.1859 271.4866 181.8155 274.8836 181.8155 C 279.4097 182.9454 280.5388 186.3061 276.0127 189.6765 L 260.1764 217.7305 C 252.2533 232.3225 247.7272 243.544 247.7272 248.0346 C 242.0721 259.2563 233.0298 271.6078 220.5903 286.1903 C 208.1411 299.6621 199.089 318.7445 193.4338 342.3079 C 184.3816 374.8624 187.7786 405.1667 202.4859 433.2205 C 203.6151 437.7111 207.0121 438.8409 208.1411 435.4706 C 210.3993 434.3503 211.5284 425.3694 214.9254 408.5272 L 218.3224 381.5934 C 222.8485 369.2515 227.3746 354.6595 230.7619 340.0674 L 238.6848 312.0135 L 242.0721 304.1525 C 243.2109 306.4026 244.34 310.8932 245.4691 316.504 C 246.5982 323.2351 246.5982 327.7161 245.4691 329.9662 C 242.0721 335.5768 240.943 354.6595 239.8139 387.2043 C 238.6848 421.9991 239.8139 442.2017 244.34 450.0627 L 244.34 453.4234 C 245.4691 469.1357 255.6503 482.6075 274.8836 491.5887 L 278.2806 492.7089 L 279.4097 487.0981 L 278.2806 476.9966 L 273.7545 423.1193 L 273.7545 420.8788 C 274.8836 418.6287 274.8836 410.7773 272.6254 397.3058 L 268.0993 368.1216 C 280.5388 371.492 290.7201 391.6949 297.5043 427.6099 C 303.1595 459.0342 308.8244 480.367 313.3505 489.3386 C 320.1348 500.5601 331.4452 510.6615 350.6784 520.7726 C 351.8075 520.7726 354.0657 520.7726 356.3336 518.5225 C 359.7209 514.0319 356.3336 478.1169 347.2814 411.8976 L 348.4105 408.5272 C 351.8075 408.5272 357.4627 414.138 365.3759 426.4896 C 369.902 433.2205 373.299 443.322 376.6863 456.7937 C 382.3511 489.3386 386.8773 508.421 389.1354 515.152 C 398.1876 534.2346 414.0241 545.4562 437.7835 551.0671 L 441.1707 551.0671 L 442.3095 549.9468 C 450.2229 545.4562 455.8781 547.6967 462.6622 553.3172 L 466.0591 548.8266 C 466.0591 551.0671 466.0591 552.1873 467.1883 552.1873 L 493.206 551.0671 L 518.0947 552.1873 C 521.4819 556.6779 533.9409 555.5576 557.6904 548.8266 L 562.2066 548.8266 L 576.9238 548.8266 L 579.1819 551.0671 C 592.7504 557.7981 606.3384 551.0671 617.6489 528.6237 C 624.4234 517.4022 630.0883 503.9304 634.6242 488.2183 C 636.8821 455.6735 645.9149 428.7299 660.6317 405.1667 L 666.2772 400.6761 L 659.5028 441.0815 C 658.3738 448.9328 657.225 460.1545 657.225 475.8764 C 657.225 490.4685 654.967 502.8102 653.838 509.5413 L 660.6317 511.7914 L 658.3738 512.9116 L 660.6317 512.9116 C 670.813 511.7914 678.7361 508.421 685.5107 505.0507 C 700.2277 494.9494 710.409 475.8764 716.0545 446.6923 L 722.8484 411.8976 C 725.1067 398.4356 729.6426 388.3341 733.0295 381.5934 C 736.4169 374.8624 739.8236 371.492 743.2109 371.492 C 744.34 381.5934 744.34 400.6761 742.0818 428.7299 C 739.8236 456.7937 736.4169 473.6263 734.1587 479.2468 L 739.8236 482.6075 L 737.546 483.7277 L 742.0818 483.7277 C 759.0374 483.7277 771.4966 459.0342 774.8837 410.7773 C 776.0128 401.7964 774.8837 391.6949 772.6254 380.4732 L 762.4442 344.558 C 761.315 331.0865 762.4442 318.7445 768.0896 307.5229 L 779.4 337.8173 C 791.8395 363.6407 799.7626 397.3058 803.1693 436.5908 C 818.9958 417.5084 824.6608 395.0652 823.5316 371.492 C 823.5316 352.419 816.7379 329.9662 805.4275 303.0322 L 795.2462 295.1714 C 772.6254 274.9686 761.315 254.7657 759.0374 236.8131 C 757.9083 225.5915 753.3922 213.2399 744.34 199.7683 L 733.0295 179.5751 C 735.2878 175.0844 742.0818 176.2047 755.6503 186.3061 C 768.0896 195.2873 774.8837 206.5088 776.0128 217.7305 C 777.1418 226.7117 781.6776 234.563 788.4522 243.544 C 795.2462 253.6455 802.0402 254.7657 806.5566 250.2751 C 809.9438 248.0346 809.9438 241.3037 808.8147 231.2023 L 802.0402 204.2587 C 799.7626 193.0372 798.6335 182.9454 798.6335 176.2047 C 798.6335 168.3437 799.7626 163.8627 803.1693 162.7329 ZM 531.6633 835.0266 L 533.9409 838.3969 C 535.0699 842.8777 535.0699 848.4885 535.0699 855.2197 C 533.9409 859.72 535.0699 870.9417 538.457 887.7742 L 541.8443 905.7365 L 544.1219 933.7904 L 540.7152 945.0121 L 537.3279 947.2622 L 535.0699 940.5215 C 533.9409 931.5499 532.7921 918.0782 531.6633 902.3661 C 531.6633 890.0145 530.5341 879.9229 528.2759 873.1821 C 524.8886 858.5901 523.7596 873.1821 526.0177 916.9579 L 524.8886 941.6417 L 522.611 950.6229 L 518.0947 951.7528 L 515.8365 947.2622 C 514.7073 943.8918 514.7073 938.281 514.7073 928.1795 L 518.0947 901.2457 C 520.3528 866.4509 520.3528 846.2481 515.8365 841.7575 C 515.8365 838.3969 516.9655 836.1467 520.3528 836.1467 C 523.7596 836.1467 524.8886 839.5171 524.8886 845.1279 C 524.8886 850.7388 527.1469 851.8589 529.405 846.2481 C 531.6633 841.7575 532.7921 838.3969 531.6633 836.1467 L 531.6633 835.0266 ZM 567.8716 936.0309 L 563.3358 925.939 L 555.4323 876.5525 C 549.7674 842.8777 548.6382 826.0453 550.8965 823.8047 C 554.3032 822.6749 555.4323 828.2954 558.8196 841.7575 L 572.3879 933.7904 L 567.8716 936.0309 ZM 227.3746 407.407 C 225.1067 405.1667 223.9776 404.0465 223.9776 406.2867 C 210.3993 482.6075 233.0298 521.8928 292.9782 526.3834 L 280.5388 503.9304 C 252.2533 502.8102 234.1589 470.2655 227.3746 407.407 ZM 191.1756 248.0346 L 188.9077 248.0346 C 186.6495 261.5064 187.7786 274.9686 190.0368 287.3202 L 178.7264 344.558 L 182.1234 347.9284 C 184.3816 349.0486 186.6495 347.9284 187.7786 344.558 L 199.089 310.8932 C 205.8732 292.931 214.9254 277.2187 228.5037 263.7469 L 227.3746 262.6267 C 211.5284 269.3578 200.218 264.8768 191.1756 248.0346 ZM 444.5677 708.1989 C 445.6968 701.4679 444.5677 699.2177 438.9126 701.4679 C 430.9897 699.2177 425.3345 692.4869 420.8084 682.3854 C 419.6793 684.6259 418.5502 687.9962 419.6793 692.4869 C 419.6793 696.9773 421.9375 701.4679 424.2054 704.8286 C 430.9897 714.93 437.7835 716.0502 444.5677 708.1989 ZM 371.0311 476.9966 C 368.7729 470.2655 366.5147 466.8855 365.3759 466.8855 L 363.1177 470.2655 C 363.1177 505.0507 367.6438 530.8738 376.6863 551.0671 C 384.6094 569.0295 399.3167 583.6215 417.4114 593.7133 C 421.9375 591.4728 425.3345 588.1025 432.1285 583.6215 L 440.0416 572.3998 C 443.4386 569.0295 444.5677 565.6591 442.3095 563.4186 L 438.9126 561.1685 C 435.5155 560.0482 434.3867 561.1685 432.1285 564.5388 C 412.895 561.1685 399.3167 552.1873 391.4034 540.9656 C 382.3511 528.6237 375.5572 507.2911 371.0311 476.9966 ZM 289.5909 433.2205 L 283.9261 426.4896 C 280.5388 425.3694 279.4097 427.6099 279.4097 435.4706 C 281.6679 509.5413 309.9535 548.8266 363.1177 553.3172 L 357.4627 531.994 C 317.8669 525.2534 295.2461 492.7089 289.5909 433.2205 ZM 138.0015 315.3741 C 134.6144 313.1337 132.3562 315.3741 132.3562 317.6243 C 128.9592 346.7985 138.0015 369.2515 158.364 383.8339 L 169.6742 400.6761 C 176.4682 428.7299 183.2525 446.6923 188.9077 457.914 C 195.6919 473.6263 205.8732 482.6075 217.1933 483.7277 L 212.6672 462.4046 C 191.1756 444.4518 178.7264 411.8976 176.4682 364.761 C 150.4507 363.6407 138.0015 346.7985 138.0015 315.3741 ZM 573.517 698.0975 C 573.517 696.9773 572.3879 699.2177 571.2588 707.0787 L 569.0007 719.4204 L 587.105 704.8286 C 590.4923 698.0975 592.7504 692.4869 591.6214 687.9962 C 584.8273 692.4869 578.0528 695.8572 573.517 698.0975 ZM 542.9734 634.1187 C 544.1219 631.8782 545.251 631.8782 547.5092 632.9984 L 552.0256 637.489 C 555.4323 632.9984 557.6904 629.6377 558.8196 624.0271 L 559.9484 624.0271 C 561.0775 618.4163 563.3358 617.2863 567.8716 617.2863 L 567.8716 624.0271 L 579.1819 624.0271 C 580.311 630.7579 582.5692 636.3688 587.105 639.7295 L 589.3632 653.2109 C 590.4923 656.5717 588.2341 654.3312 584.8273 649.8406 C 578.0528 641.9796 572.3879 640.8594 565.6133 647.5905 C 558.8196 652.0811 554.3032 659.9421 549.7674 671.1637 C 545.251 682.3854 542.9734 691.3666 541.8443 701.4679 C 541.8443 709.3192 542.9734 712.6895 546.3801 711.5693 C 548.6382 702.5881 552.0256 694.7369 557.6904 689.1165 C 570.1297 687.9962 578.0528 685.7557 583.6982 682.3854 C 588.2341 679.015 590.4923 674.5244 593.899 666.6731 L 602.9317 665.5529 C 602.9317 659.9421 602.9317 654.3312 606.3384 647.5905 C 600.6735 644.2201 596.1572 640.8594 593.899 634.1187 L 590.4923 612.8054 L 584.8273 600.4538 C 567.8716 567.9092 548.6382 554.4374 524.8886 561.1685 L 498.8612 561.1685 C 487.5508 579.1309 485.2926 579.1309 489.8187 561.1685 L 488.6896 561.1685 L 485.2926 561.1685 C 479.6374 572.3998 475.1114 579.1309 471.7144 581.3713 C 469.4464 582.4916 468.3174 582.4916 467.1883 581.3713 C 467.1883 578.0107 469.4464 572.3998 475.1114 565.6591 C 475.1114 564.5388 473.9823 563.4186 469.4464 563.4186 L 460.4042 571.27 C 458.1363 576.8807 452.4811 583.6215 444.5677 591.4728 L 428.7315 607.1849 C 428.7315 612.8054 427.5927 617.2863 427.5927 622.897 L 433.2576 622.897 L 437.7835 620.6567 C 438.9126 616.1661 441.1707 612.8054 444.5677 612.8054 C 445.6968 612.8054 447.9647 616.1661 451.3521 622.897 C 454.749 627.3876 458.1363 629.6377 459.2751 629.6377 C 460.4042 619.5365 461.5331 617.2863 464.9301 620.6567 C 467.1883 624.0271 469.4464 634.1187 472.8435 647.5905 C 473.9823 649.8406 475.1114 649.8406 475.1114 649.8406 L 476.2405 645.35 C 478.4987 640.8594 480.7665 640.8594 481.8956 647.5905 L 483.0345 671.1637 C 486.4218 674.5244 487.5508 677.8948 487.5508 683.5056 C 493.206 682.3854 494.3448 685.7557 488.6896 694.7369 C 488.6896 695.8572 489.8187 698.0975 490.9478 698.0975 C 492.0769 698.0975 492.0769 699.2177 492.0769 701.4679 C 492.0769 704.8286 490.9478 705.9584 488.6896 708.1989 C 489.8187 711.5693 492.0769 714.93 494.3448 714.93 C 496.603 714.93 498.8612 711.5693 501.1194 708.1989 L 503.397 677.8948 C 503.397 672.284 504.5261 668.9136 505.6552 668.9136 L 509.0425 668.9136 C 510.1716 671.1637 510.1716 672.284 509.0425 675.6447 L 511.3006 705.9584 C 513.5782 711.5693 516.9655 713.8098 520.3528 712.6895 C 524.8886 712.6895 524.8886 711.5693 521.4819 704.8286 C 520.3528 702.5881 519.2238 701.4679 520.3528 699.2177 C 521.4819 698.0975 522.611 698.0975 524.8886 698.0975 C 526.0177 698.0975 524.8886 694.7369 520.3528 691.3666 C 520.3528 685.7557 521.4819 684.6259 526.0177 685.7557 C 527.1469 674.5244 530.5341 668.9136 537.3279 670.0338 L 542.9734 634.1187 ZM 506.7843 655.4515 C 503.397 658.8218 502.2679 662.1825 502.2679 664.4327 C 498.8612 665.5529 495.474 667.7933 493.206 666.6731 C 495.474 657.6919 499.9903 650.9608 506.7843 648.7108 C 509.0425 648.7108 509.0425 650.9608 506.7843 655.4515 ZM 563.3358 661.0623 C 565.6133 656.5717 570.1297 654.3312 573.517 656.5717 C 569.0007 663.3027 565.6133 665.5529 563.3358 661.0623 ZM 496.603 641.9796 C 495.474 638.6093 496.603 636.3688 498.8612 634.1187 C 499.9903 631.8782 503.397 631.8782 506.7843 632.9984 C 504.5261 639.7295 501.1194 643.0999 496.603 641.9796 ZM 710.409 618.4163 L 708.1314 615.0459 C 707.0023 613.9257 707.0023 612.8054 709.2605 610.5553 C 717.1837 607.1849 720.5903 603.8242 719.4612 601.574 C 718.3322 600.4538 717.1837 600.4538 713.7963 600.4538 C 713.7963 598.2037 713.7963 597.0836 716.0545 595.9634 C 720.5903 595.9634 723.9776 592.593 726.2358 586.9822 C 727.3649 581.3713 726.2358 579.1309 720.5903 580.2511 C 703.6151 607.1849 690.0465 628.5079 679.8652 640.8594 C 668.5548 654.3312 657.225 664.4327 645.9149 667.7933 L 644.7858 674.5244 C 682.1234 658.8218 700.2277 643.0999 697.9501 627.3876 C 704.7441 626.2673 709.2605 622.897 710.409 618.4163 ZM 688.9174 600.4538 L 697.9501 594.8432 C 703.6151 592.593 707.0023 589.2324 707.0023 583.6215 C 705.8732 580.2511 701.3568 579.1309 693.4338 581.3713 C 685.5107 582.4916 677.607 586.9822 668.5548 592.593 C 643.6567 608.3148 627.8301 626.2673 621.0362 647.5905 C 613.113 650.9608 609.7257 658.8218 609.7257 673.4042 C 610.8548 675.6447 618.778 674.5244 631.2175 670.0338 C 643.6567 664.4327 648.1924 661.0623 648.1924 658.8218 C 644.7858 656.5717 643.6567 654.3312 644.7858 653.2109 L 647.0634 652.0811 C 665.1481 646.4702 671.9421 641.9796 666.2772 638.6093 C 660.6317 638.6093 657.225 637.489 658.3738 634.1187 L 673.0712 628.5079 C 679.8652 626.2673 682.1234 622.897 682.1234 620.6567 C 673.0712 621.7769 669.6839 620.6567 671.9421 617.2863 C 671.9421 616.1661 675.3293 613.9257 680.9943 612.8054 C 687.7883 609.435 693.4338 606.0646 696.821 603.8242 C 697.9501 601.574 695.6919 600.4538 693.4338 601.574 L 688.9174 600.4538 ZM 669.6839 610.5553 C 666.2772 612.8054 661.7609 616.1661 658.3738 619.5365 C 654.967 624.0271 652.7089 627.3876 651.5798 629.6377 L 650.4506 627.3876 C 649.3216 626.2673 648.1924 626.2673 647.0634 626.2673 C 647.0634 620.6567 653.838 613.9257 665.1481 606.0646 C 668.5548 606.0646 669.6839 607.1849 669.6839 610.5553 ZM 791.8395 410.7773 C 790.7104 410.7773 789.5814 411.8976 788.4522 415.2679 C 787.3231 418.6287 787.3231 421.9991 788.4522 424.2395 C 786.194 450.0627 781.6776 469.1357 773.7545 480.367 C 765.8316 491.5887 754.5212 499.44 739.8236 503.9304 L 726.2358 524.1333 C 744.34 519.6426 759.0374 511.7914 771.4966 502.8102 C 786.194 490.4685 794.1171 475.8764 795.2462 459.0342 C 796.3752 428.7299 795.2462 413.0178 791.8395 410.7773 ZM 871.0311 346.7985 L 848.4106 362.5108 C 841.6166 365.8812 837.1002 368.1216 833.7129 367.0014 C 834.842 382.7137 833.7129 395.0652 833.7129 404.0465 C 829.1771 424.2395 821.2737 439.9612 808.8147 450.0627 L 806.5566 469.1357 C 826.9189 456.7937 840.4875 429.86 847.2816 386.084 C 861.9791 365.8812 871.0311 353.5392 871.0311 346.7985 ZM 790.7104 271.6078 L 803.1693 285.07 C 813.3506 298.5418 821.2737 317.6243 825.7899 340.0674 L 834.842 337.8173 C 826.9189 316.504 823.5316 297.4216 824.6608 281.7093 C 825.7899 244.6642 823.5316 230.0821 820.1249 237.9333 C 818.9958 252.5252 815.6088 261.5064 809.9438 265.997 L 795.2462 267.1173 C 790.7104 268.2375 789.5814 269.3578 790.7104 271.6078 ZM 735.2878 450.0627 C 736.4169 437.7111 736.4169 429.86 734.1587 426.4896 C 733.0295 424.2395 730.7716 428.7299 727.3649 439.9612 C 722.8484 475.8764 711.5381 501.6803 692.3047 516.2723 C 686.6398 520.7726 679.8652 524.1333 671.9421 527.5034 L 660.6317 531.994 L 654.967 543.2157 L 648.1924 555.5576 L 686.6398 537.6049 C 699.0986 531.994 709.2605 524.1333 717.1837 515.152 C 727.3649 503.9304 733.0295 481.4872 735.2878 450.0627 ZM 651.5798 465.7653 C 650.4506 456.7937 648.1924 455.6735 647.0634 463.5248 C 641.3985 518.5225 623.2943 552.1873 592.7504 561.1685 L 581.4401 561.1685 L 579.1819 563.4186 L 580.311 564.5388 C 578.0528 564.5388 584.8273 572.3998 601.8027 590.3526 C 627.8301 576.8807 643.6567 547.6967 650.4506 503.9304 C 652.7089 489.3386 653.838 475.8764 651.5798 465.7653 ZM 322.393 674.5244 L 316.7378 672.284 L 245.4691 835.0266 L 251.1242 838.3969 L 322.393 674.5244 ZM 271.4866 609.435 L 270.3575 599.3338 L 165.1578 760.9464 L 169.6742 766.5573 L 271.4866 609.435 ZM 240.943 538.7252 L 234.1589 536.475 L 108.587 675.6447 L 110.8549 681.2556 L 240.943 538.7252 ZM 341.6262 490.4685 L 334.8322 499.44 L 340.4971 503.9304 L 342.7553 499.44 L 342.7553 490.4685 L 341.6262 490.4685 ZM 332.5742 437.7111 L 331.4452 427.6099 L 314.4796 447.8126 L 315.6087 456.7937 L 332.5742 437.7111 ZM 194.5629 494.9494 L 188.9077 491.5887 L 74.6558 583.6215 L 76.914 590.3526 L 194.5629 494.9494 ZM 63.3457 488.2183 L 63.3457 494.9494 L 158.364 441.0815 L 158.364 433.2205 L 63.3457 488.2183 ZM 71.2588 402.9166 L 70.1297 410.7773 L 125.5622 388.3341 L 123.3041 383.8339 L 123.3041 382.7137 L 71.2588 402.9166 ZM 96.1475 319.8647 L 93.8893 327.7161 L 114.2519 323.2351 L 114.2519 316.504 L 96.1475 319.8647 ZM 216.0642 157.122 L 210.3993 162.7329 L 259.0473 175.0844 C 261.3055 172.844 264.7023 171.7141 268.0993 170.5938 L 216.0642 157.122 ZM 695.6919 674.5244 L 688.9174 679.015 L 755.6503 836.1467 L 761.315 831.6561 L 695.6919 674.5244 ZM 891.3937 681.2556 L 894.8004 674.5244 L 769.2188 531.994 L 762.4442 535.3547 L 891.3937 681.2556 ZM 833.7129 766.5573 L 837.1002 760.9464 L 740.9526 606.0646 L 737.546 613.9257 L 833.7129 766.5573 ZM 854.0754 437.7111 L 851.7979 444.4518 L 938.9125 494.9494 L 938.9125 487.0981 L 854.0754 437.7111 ZM 813.3506 489.3386 L 808.8147 493.8291 L 809.9438 494.9494 L 926.4731 589.2324 L 927.6022 582.4916 L 813.3506 489.3386 ZM 885.7482 381.5934 L 881.2124 387.2043 L 932.1185 407.407 L 930.9894 399.5559 L 885.7482 381.5934 ZM 908.369 325.4756 L 893.6519 322.1149 L 893.6519 328.8459 L 910.6271 333.3267 L 908.369 325.4756 ZM 699.0986 462.4046 L 700.2277 453.4234 L 677.607 427.6099 L 676.4779 436.5908 L 699.0986 462.4046 ZM 583.6725 145.7725 L 641.3985 76.3109 L 634.6242 72.9502 L 578.7725 140.32 C 580.4415 142.0225 582.3495 144.1945 583.6725 145.7725 ZM 650.6175 110.75 L 675.3293 88.6625 L 668.5548 86.4123 L 646.075 106.26 C 647.613 107.733 649.1267 109.2294 650.6175 110.75 ZM 670.2425 134.02 L 712.6672 106.6152 L 705.8732 103.2545 L 666.2875 128.73 C 667.6337 130.4708 668.9524 132.2348 670.2425 134.02 ZM 686.42 160.4525 L 753.3922 131.3085 L 746.5981 126.8179 L 683.2775 154.5475 C 684.3564 156.4961 685.4042 158.4652 686.42 160.4525 ZM 698.745 190.2275 L 720.5903 184.0657 L 722.8484 176.2047 L 696.5125 183.7 C 697.2922 185.8589 698.0373 188.0352 698.745 190.2275 ZM 706.3 222.54 L 731.9007 219.9806 L 729.6426 213.2399 L 705.17 215.73 C 705.5839 217.9869 705.9615 220.2576 706.3 222.54 ZM 708.4975 253.505 L 748.8564 255.8956 L 746.5981 249.1548 L 708.4225 246.8575 C 708.4738 248.7317 708.4999 250.6134 708.4999 252.5 L 708.4975 253.505 ZM 705.7675 285.855 L 752.2631 296.2917 L 754.5212 289.5606 L 706.825 278.6675 C 706.5143 281.0772 706.1622 283.4725 705.7675 285.855 ZM 698.05 316.885 L 745.469 335.5768 L 747.7272 328.8459 L 700.1875 310.115 C 699.514 312.3887 698.8004 314.6455 698.05 316.885 ZM 685.4975 346.33 L 726.2358 370.3718 L 727.3649 363.6407 L 688.365 340.6375 C 687.4382 342.5518 686.4823 344.4499 685.4975 346.33 ZM 666.3425 376.1975 L 712.6672 414.138 L 713.7963 406.2867 L 670.5175 370.5975 C 669.1577 372.4884 667.7651 374.3561 666.3425 376.1975 ZM 644.675 400.0675 L 648.1924 404.0465 L 651.5798 397.3058 L 649.6975 395.1825 C 648.0519 396.8398 646.3768 398.4677 644.675 400.0675 ZM 617.1575 421.795 L 627.8301 438.8409 L 631.2175 429.86 L 623.39 417.525 C 621.3403 418.9857 619.2629 420.4098 617.1575 421.795 ZM 587.64 437.8725 L 609.7257 489.3386 L 610.8548 478.1169 L 592.955 435.435 C 591.1974 436.2719 589.425 437.0852 587.64 437.8725 ZM 554.8975 449.06 L 575.7946 531.994 L 582.5692 530.8738 L 561.3975 447.3325 C 559.2449 447.9434 557.0786 448.5192 554.8975 449.06 ZM 518.4 454.6275 L 524.8886 537.6049 L 531.6633 537.6049 L 525.135 454.11 C 522.9007 454.3194 520.6548 454.4913 518.4 454.6275 ZM 484.21 453.8425 L 476.2405 536.475 L 483.0345 537.6049 L 490.98 454.4525 C 488.713 454.2864 486.4555 454.0827 484.21 453.8425 ZM 450.57 447.32 L 429.8606 527.5034 L 435.5155 528.6237 L 456.62 448.9375 C 454.5906 448.429 452.5746 447.8892 450.57 447.32 ZM 419.2625 435.535 L 395.9294 489.3386 L 399.3167 497.1995 L 425.08 438.185 C 423.1249 437.3318 421.1848 436.4476 419.2625 435.535 ZM 388.255 417.2675 L 380.0832 429.86 L 383.4803 436.5908 L 393.6325 420.9875 C 391.8187 419.7754 390.0268 418.5359 388.255 417.2675 ZM 361.9175 394.7875 L 358.5918 398.4356 L 361.9886 405.1667 L 366.95 399.71 C 365.2446 398.0985 363.5661 396.4568 361.9175 394.7875 ZM 340.3575 369.01 C 328.2977 378.7782 316.2693 388.5786 304.2983 398.4356 L 304.2983 407.407 L 344.7125 374.96 C 343.2256 373.0046 341.774 371.0201 340.3575 369.01 ZM 322.9525 339.21 L 286.194 360.2704 L 290.7201 364.761 L 325.735 344.8425 C 324.7796 342.9812 323.8513 341.1042 322.9525 339.21 ZM 311.665 309.6025 L 259.0473 329.9662 L 257.9182 337.8173 L 313.7325 316.225 C 313.0066 314.0336 312.3174 311.8264 311.665 309.6025 ZM 304.7825 275.4075 L 243.2109 288.4404 L 244.34 295.1714 L 305.65 282.1075 C 305.3245 279.8856 305.0352 277.6522 304.7825 275.4075 ZM 303.68 243.855 L 268.0993 245.7845 L 264.7023 252.5252 L 303.51 250.4675 C 303.5314 248.255 303.5879 246.05 303.68 243.855 ZM 307.3825 212.83 L 280.5388 209.8695 L 278.2806 216.6102 L 306.1525 219.6325 C 306.5246 217.3523 306.9349 215.0839 307.3825 212.83 ZM 315.6475 183.2525 L 292.9782 177.3249 L 291.8492 184.0657 L 313.375 189.8525 C 314.0956 187.6353 314.8532 185.4354 315.6475 183.2525 ZM 328.4575 155.0275 L 260.1764 124.5774 L 253.3824 129.068 L 325.2975 161.0075 C 326.3187 158.9944 327.3717 157.0012 328.4575 155.0275 ZM 347.185 126.8475 L 305.4274 98.7639 C 303.1595 99.8842 300.9013 101.0044 297.5043 102.1343 L 342.8975 132.4575 C 344.295 130.5618 345.7238 128.6919 347.185 126.8475 ZM 368.9225 103.445 L 345.0135 80.8015 L 338.2292 84.1718 L 363.8275 108.2975 C 365.4976 106.6507 367.1962 105.0334 368.9225 103.445 ZM 392.5625 84.7275 L 381.2123 69.5798 L 374.4281 70.7001 L 387.485 88.2825 C 389.1585 87.0726 390.8511 85.8869 392.5625 84.7275 ZM 420.665 68.8025 L 416.2823 60.5986 L 408.3689 62.8487 L 413.555 72.2825 C 415.8988 71.0778 418.2692 69.9173 420.665 68.8025 ZM 606.3384 66.2094 L 599.5445 63.969 L 567.14 120.38 C 568.7625 121.706 570.9066 123.3877 572.5825 124.69 L 606.3384 66.2094 ZM 792.988 162.7329 L 787.3231 158.2423 L 748.8564 169.464 L 756.7792 173.9642 L 792.988 162.7329 ZM 364.6719 123.9297 C 364.6719 125.6172 366.5391 126.7422 370.2813 127.2969 L 370.2813 128.4219 L 369.1641 128.4219 L 364.6719 126.1797 C 362.4219 126.1797 361.2969 126.9297 361.2969 128.4219 L 361.2969 130.6719 L 383.7578 137.4063 L 383.7578 135.1641 L 382.6406 134.0391 C 378.8906 134.0391 377.0234 133.2891 377.0234 131.7891 L 375.8984 130.6719 L 397.2344 139.6563 C 398.7344 139.6563 404.3516 135.5391 414.0859 127.2969 L 410.7109 122.8047 L 416.3281 125.0547 C 432.0469 116.6328 439.9141 111.7656 439.9141 110.4531 L 439.9141 108.2109 L 438.7891 107.0859 L 439.9141 107.0859 L 433.1719 94.7344 L 434.2969 94.7344 L 435.4219 95.8516 L 445.5313 104.8359 C 448.5234 104.8359 450.0234 101.8438 450.0234 95.8516 L 451.1406 95.8516 L 452.2656 100.3438 L 451.1406 100.3438 L 453.3906 102.5938 L 454.5156 102.5938 L 454.5156 99.2266 C 456.0078 99.2266 456.7578 100.3516 456.7578 102.5938 C 459.75 102.5938 461.25 103.3438 461.25 104.8359 C 472.2891 101.8438 484.2656 100.3438 497.1875 100.3438 L 507.2969 100.3438 L 529.7578 101.4688 L 558.9531 71.1484 L 558.9531 68.8984 C 544.5391 65.1641 529.9375 62.5391 515.1563 61.0391 L 514.0313 61.0391 L 512.9141 62.1641 L 511.7891 61.0391 L 496.0625 61.0391 C 447.7734 61.0391 403.9766 82.0078 364.6719 123.9297 ZM 547.7266 72.2734 L 547.7266 74.5156 L 546.6016 74.5156 L 546.6016 72.2734 L 547.7266 72.2734 ZM 489.3281 77.8828 L 490.4531 79.0078 L 489.3281 83.5 L 487.0781 83.5 L 485.9609 80.1328 L 488.2031 77.8828 L 489.3281 77.8828 ZM 443.2813 84.625 L 444.4063 83.5 L 445.5313 86.8672 L 444.4063 86.8672 L 443.2813 87.9922 L 442.1563 84.625 L 443.2813 84.625 ZM 485.9609 84.625 L 485.9609 86.8672 L 484.8359 86.8672 L 484.8359 84.625 L 485.9609 84.625 ZM 447.7734 85.75 L 447.7734 87.9922 L 446.6484 87.9922 L 446.6484 85.75 L 447.7734 85.75 ZM 536.4922 87.9922 L 536.4922 90.2422 L 534.25 90.2422 L 536.4922 87.9922 ZM 453.3906 90.2422 L 453.3906 92.4844 L 451.1406 90.2422 L 453.3906 90.2422 ZM 479.2188 95.8516 L 479.2188 99.2266 L 478.0938 99.2266 L 476.9766 98.1016 L 479.2188 95.8516 ZM 442.1563 96.9766 L 442.1563 98.1016 L 439.9141 98.1016 L 439.9141 96.9766 L 442.1563 96.9766 ZM 382.6406 119.4375 L 382.6406 121.6875 L 378.1484 120.5625 L 378.1484 119.4375 L 382.6406 119.4375 ZM 374.7734 129.5469 L 374.7734 130.6719 L 372.5313 130.6719 L 372.5313 129.5469 L 374.7734 129.5469 ZM 527.5078 108.2109 L 527.5078 109.3281 C 527.5078 110.6406 531.25 112.8906 538.7422 116.0703 C 541.7344 116.0703 543.6094 113.8281 544.3594 109.3281 L 543.2344 108.2109 L 543.2344 107.0859 L 544.3594 105.9609 L 543.2344 104.8359 L 537.6172 107.0859 L 530.8828 104.8359 L 527.5078 108.2109 ZM 546.6016 109.3281 L 548.8516 111.5781 L 551.0938 109.3281 L 548.8516 107.0859 L 546.6016 109.3281 ZM 553.3438 113.8203 L 553.3438 114.9453 L 556.7109 114.9453 L 556.7109 112.7031 L 555.5859 111.5781 L 553.3438 113.8203 ZM 480.3438 119.4375 C 480.3438 123.1875 482.9609 125.0547 488.2031 125.0547 C 489.7031 125.0547 491.1953 122.8125 492.6953 118.3125 C 490.6328 115.3203 488.0156 113.8203 484.8359 113.8203 C 483.3359 114.1953 481.8359 116.0703 480.3438 119.4375 ZM 554.4609 122.8047 L 555.5859 122.8047 L 557.8359 120.5625 L 557.8359 119.4375 L 554.4609 119.4375 L 554.4609 122.8047 ZM 538.7422 127.2969 L 534.25 134.0391 L 528.6328 130.6719 C 522.6406 130.6719 519.6484 132.9219 519.6484 137.4063 C 521.7031 146.3906 525.4453 150.8828 530.8828 150.8828 L 532 150.8828 L 533.125 149.7578 L 533.125 150.8828 L 534.25 150.8828 L 538.7422 144.1484 L 538.7422 143.0234 L 537.6172 141.8984 L 543.2344 135.1641 C 549.2188 134.4141 552.2188 133.2891 552.2188 131.7891 L 546.6016 126.1797 L 543.2344 128.4219 L 542.1094 128.4219 L 542.1094 126.1797 L 538.7422 126.1797 L 538.7422 127.2969 ZM 573.5547 175.5938 C 573.5547 178.5938 575.4219 180.8359 579.1719 182.3281 L 580.2969 181.2031 L 582.5391 181.2031 L 582.5391 183.4531 L 581.4141 183.4531 L 580.2969 182.3281 L 579.1719 182.3281 L 579.1719 187.9453 C 579.1719 189.4453 577.6719 190.1875 574.6797 190.1875 L 574.6797 192.4375 L 575.8047 193.5625 L 545.4766 223.8828 C 545.4766 230.25 550.3438 237.7344 560.0781 246.3438 L 560.0781 247.4688 L 555.5859 244.0938 L 554.4609 244.0938 L 556.7109 251.9609 C 552.9609 255.7031 551.0938 259.4453 551.0938 263.1875 L 552.2188 263.1875 L 600.5078 217.1406 L 603.875 218.2656 C 603.875 215.2734 604.625 213.7734 606.125 213.7734 C 611.5469 207.7891 615.6641 204.7891 618.4766 204.7891 L 625.2188 207.0391 L 625.2188 204.7891 C 628.2109 202.5469 629.7109 200.3047 629.7109 198.0547 L 630.8281 198.0547 L 633.0781 200.2969 L 636.4453 198.0547 L 639.8125 200.2969 C 641.3125 200.2969 642.4375 198.0547 643.1875 193.5625 L 644.3047 193.5625 C 654.0391 216.5859 658.9063 238.2969 658.9063 258.6953 L 658.9063 259.8203 C 658.9063 283.4063 653.6641 305.4922 643.1875 326.0781 C 611.5469 379.2344 568.875 405.8125 515.1563 405.8125 L 498.3125 405.8125 L 492.6953 404.6953 C 492.6953 408.4375 491.5703 410.3047 489.3281 410.3047 L 489.3281 405.8125 L 487.0781 405.8125 L 485.9609 406.9375 C 485.9609 404.8828 480.7188 402.6406 470.2344 400.2031 C 453.3906 398.3281 430.5547 384.8516 401.7266 359.7734 L 372.5313 378.8594 L 370.2813 378.8594 L 398.3594 358.6484 L 398.3594 357.5234 C 382.2656 339.1797 371.4063 323.4609 365.7891 310.3594 C 362.2344 299.125 359.6172 293.5078 357.9297 293.5078 L 359.0547 292.3906 C 358.3047 287.8984 357.1797 285.6484 355.6875 285.6484 L 356.8047 284.5234 L 353.4375 254.2031 L 353.4375 237.3594 L 352.3125 236.2344 L 351.1953 236.2344 C 349.3203 241.4766 347.0781 244.0938 344.4531 244.0938 C 344.4531 241.1016 343.3359 239.6016 341.0859 239.6016 L 334.3438 239.6016 L 330.9766 242.9766 L 327.6094 241.8516 L 326.4844 241.8516 L 327.6094 247.4688 L 327.6094 249.7109 L 321.9922 250.8359 L 318.625 249.7109 L 318.625 245.2188 L 325.3594 245.2188 L 325.3594 242.9766 L 323.1172 240.7266 L 316.375 246.3438 L 316.375 263.1875 L 318.625 265.4375 C 326.1094 265.4375 329.8516 262.8203 329.8516 257.5703 L 332.1016 257.5703 L 332.1016 259.8203 L 326.4844 267.6797 L 326.4844 268.8047 L 333.2266 269.9297 C 335.4766 278.1641 337.3438 282.2813 338.8359 282.2813 L 338.8359 283.4063 L 333.2266 278.9141 L 332.1016 278.9141 L 332.1016 280.0313 L 337.7188 286.7734 L 334.3438 289.0156 C 329.8594 288.0859 327.6094 286.5859 327.6094 284.5234 L 327.6094 283.4063 L 328.7344 282.2813 L 318.625 275.5391 L 317.5 276.6641 C 323.8672 311.8516 329.8594 329.4453 335.4688 329.4453 L 334.3438 330.5703 C 337.7188 342.5547 347.0781 357.5234 362.4219 375.4922 C 403.5938 421.1641 453.0078 444 510.6641 444 L 511.7891 444 C 540.7969 444 568.5 437.2656 594.8906 423.7813 C 662.2734 381.6719 695.9688 327.0234 695.9688 259.8203 L 695.9688 254.2031 C 695.9688 224.6328 688.8516 196.5547 674.6328 169.9766 L 675.75 168.8516 L 675.75 167.7266 L 674.6328 167.7266 C 662.2734 148.0781 651.7969 134.2266 643.1875 126.1797 L 592.6484 175.5938 C 591.1484 175.5938 590.3984 174.4688 590.3984 172.2188 L 588.1563 172.2188 C 588.1563 175.2188 587.0313 176.7109 584.7891 176.7109 C 584.7891 172.2266 583.6641 169.9766 581.4141 169.9766 L 578.0469 169.9766 C 576.5469 170.3516 575.0547 172.2266 573.5547 175.5938 ZM 325.3594 253.0781 L 326.4844 253.0781 L 325.3594 256.4531 L 321.9922 256.4531 L 325.3594 253.0781 ZM 338.8359 274.4219 L 338.8359 275.5391 L 336.5938 275.5391 L 336.5938 274.4219 L 338.8359 274.4219 ZM 346.7031 275.5391 L 346.7031 276.6641 L 344.4531 276.6641 L 344.4531 275.5391 L 346.7031 275.5391 ZM 483.7109 409.1875 L 487.0781 412.5547 L 481.4688 413.6797 L 480.3438 413.6797 L 482.5859 409.1875 L 483.7109 409.1875 ZM 491.5703 413.6797 C 492.6953 413.6797 493.8203 415.1797 494.9453 418.1719 L 491.5703 420.4141 L 489.3281 420.4141 L 488.2031 419.2891 L 489.3281 413.6797 L 491.5703 413.6797 ZM 506.1719 131.7891 L 508.4219 134.0391 L 509.5391 134.0391 L 511.7891 131.7891 L 509.5391 129.5469 L 508.4219 129.5469 L 506.1719 131.7891 ZM 359.0547 132.9141 L 362.4219 132.9141 L 360.1797 130.6719 L 359.0547 130.6719 L 359.0547 132.9141 ZM 384.8828 143.0234 L 388.25 143.0234 L 388.25 141.8984 L 387.1328 140.7734 L 382.6406 141.8984 L 377.0234 140.7734 L 377.0234 141.8984 C 377.0234 143.3984 378.1406 144.1484 380.3906 144.1484 L 380.3906 145.2656 L 379.2656 145.2656 C 369.7188 142.0938 362.6094 138.3516 357.9297 134.0391 L 356.8047 134.0391 C 354.9297 134.9766 350.0703 141.3438 342.2109 153.1328 C 329.4844 175.7813 321.625 195.9922 318.625 213.7734 L 319.75 214.8984 L 329.8516 211.5313 L 341.0859 214.8984 L 346.7031 212.6484 L 346.7031 218.2656 L 352.3125 223.8828 C 354.1875 223.8828 356.0547 218.6406 357.9297 208.1563 C 357.9297 204.6094 363.5391 190.7578 374.7734 166.6094 L 366.9141 165.4844 L 366.9141 164.3594 L 372.5313 163.2344 L 378.1484 164.3594 L 379.2656 163.2344 L 377.0234 159.8672 C 381.1406 159.8672 384.5078 157.25 387.1328 152.0078 L 387.1328 148.6406 L 384.8828 148.6406 L 384.8828 147.5156 L 386.0078 147.5156 L 390.5 148.6406 L 390.5 146.3906 L 384.8828 145.2656 L 384.8828 143.0234 ZM 383.7578 145.2656 L 383.7578 147.5156 L 381.5156 145.2656 L 383.7578 145.2656 ZM 350.0703 210.4063 L 350.0703 211.5313 L 346.7031 208.1563 L 346.7031 207.0391 L 350.0703 210.4063 ZM 392.7422 143.0234 L 388.25 143.0234 L 390.5 145.2656 L 392.7422 145.2656 L 392.7422 143.0234 ZM 498.3125 138.5313 L 499.4375 138.5313 L 499.4375 136.2813 L 498.3125 136.2813 L 498.3125 138.5313 ZM 543.2344 140.7734 L 543.2344 143.0234 L 545.4766 145.2656 L 546.6016 145.2656 L 549.9688 141.8984 L 546.6016 138.5313 L 545.4766 138.5313 L 543.2344 140.7734 ZM 548.8516 150.8828 L 552.2188 154.25 L 554.4609 154.25 L 557.8359 150.8828 L 557.8359 148.6406 L 554.4609 145.2656 L 548.8516 145.2656 L 548.8516 150.8828 ZM 487.0781 148.6406 L 487.0781 149.7578 L 489.3281 152.0078 L 490.4531 152.0078 L 490.4531 147.5156 L 489.3281 146.3906 L 487.0781 148.6406 ZM 424.1875 149.7578 L 424.1875 150.8828 L 426.4375 153.1328 L 428.6797 150.8828 L 428.6797 149.7578 L 426.4375 147.5156 L 424.1875 149.7578 ZM 561.2031 158.7422 L 561.2031 165.4844 L 565.6953 169.9766 L 567.9375 169.9766 C 570.7422 168.4766 572.6172 166.2344 573.5547 163.2344 C 571.3047 158.75 569.0625 156.5 566.8203 156.5 L 565.6953 156.5 L 564.5703 157.625 L 563.4453 156.5 L 561.2031 158.7422 ZM 546.6016 163.2344 L 547.7266 163.2344 L 547.7266 160.9922 L 546.6016 160.9922 L 546.6016 163.2344 ZM 456.7578 173.3438 L 456.7578 174.4688 L 459.0078 176.7109 L 462.375 173.3438 L 460.125 171.1016 L 459.0078 171.1016 L 456.7578 173.3438 ZM 447.7734 175.5938 L 447.7734 177.8359 L 452.2656 182.3281 L 453.3906 182.3281 L 455.6328 180.0859 L 455.6328 178.9609 L 451.1406 173.3438 L 450.0234 173.3438 L 447.7734 175.5938 ZM 552.2188 182.3281 L 551.0938 183.4531 L 554.4609 189.0703 L 556.7109 186.8203 L 556.7109 185.6953 L 553.3438 182.3281 L 552.2188 182.3281 ZM 433.1719 190.1875 L 432.0547 191.3125 L 433.1719 195.8047 L 434.2969 195.8047 L 437.6641 192.4375 L 435.4219 190.1875 L 433.1719 190.1875 ZM 423.0703 196.9297 L 423.0703 201.4219 L 426.4375 204.7891 L 430.9297 204.7891 L 435.4219 201.4219 C 435.4219 198.0547 433.1719 195.4375 428.6797 193.5625 C 424.9375 194.5 423.0703 195.6172 423.0703 196.9297 ZM 529.7578 239.6016 L 520.7734 244.0938 L 520.7734 247.4688 L 523.0156 249.7109 C 523.7656 257.3906 526.3828 265.25 530.8828 273.2969 L 540.9844 269.9297 L 547.7266 263.1875 L 545.4766 260.9453 L 545.4766 259.8203 L 546.6016 258.6953 L 547.7266 258.6953 L 548.8516 259.8203 L 549.9688 259.8203 C 550.1563 253.8359 551.6484 250.8359 554.4609 250.8359 L 552.2188 248.5859 L 551.0938 248.5859 L 549.9688 249.7109 L 549.9688 248.5859 L 552.2188 245.2188 C 548.6563 233.2422 545.2891 227.25 542.1094 227.25 L 529.7578 239.6016 ZM 534.25 237.3594 L 534.25 239.6016 L 533.125 239.6016 L 533.125 237.3594 L 534.25 237.3594 ZM 540.9844 264.3125 L 540.9844 266.5547 L 538.7422 264.3125 L 540.9844 264.3125 ZM 518.5234 260.9453 L 518.5234 263.1875 C 519.6484 269.1797 521.1406 272.1719 523.0156 272.1719 L 524.1406 272.1719 L 525.2656 271.0469 C 525.2656 262.8125 524.1406 258.6953 521.8984 258.6953 L 520.7734 258.6953 L 518.5234 260.9453 ZM 482.5859 286.7734 L 482.5859 287.8984 L 505.0469 310.3594 L 526.3906 290.1406 C 526.3906 284.9063 523.0156 278.9141 516.2813 272.1719 L 516.2813 275.5391 L 514.0313 275.5391 C 512.1563 275.5391 510.6641 272.9219 509.5391 267.6797 C 511.7891 267.6797 512.9141 266.9375 512.9141 265.4375 L 512.9141 263.1875 L 509.5391 259.8203 L 482.5859 286.7734 ZM 558.9531 268.8047 C 558.9531 271.0547 559.7031 272.1719 561.2031 272.1719 L 563.4453 272.1719 L 566.8203 269.9297 L 563.4453 262.0625 C 562.1328 262.0625 560.6406 264.3125 558.9531 268.8047 ZM 525.2656 277.7891 L 530.8828 284.5234 L 540.9844 274.4219 L 540.9844 273.2969 L 529.7578 277.7891 C 528.2578 277.7891 527.5078 276.2969 527.5078 273.2969 L 525.2656 273.2969 L 525.2656 277.7891 ZM 563.4453 286.7734 C 563.4453 294.2578 566.0625 298 571.3125 298 C 574.6797 298 577.6719 295.3828 580.2969 290.1406 L 574.6797 281.1563 L 563.4453 286.7734 Z" fill="#ff6600"/>
	</g>
</svg>