<?xml version="1.0" standalone="no"?>
<!DOCTYPE svg PUBLIC "-//W3C//DTD SVG 1.1//EN" "http://www.w3.org/Graphics/SVG/1.1/DTD/svg11.dtd">
<svg id="STATE%20OF%20IT%3AVector" viewBox="0 0 500 115" style="background-color:#ffffff00" version="1.1" xmlns="http://www.w3.org/2000/svg" xmlns:xlink="http://www.w3.org/1999/xlink" xml:space="preserve" x="0px" y="0px" width="500px" height="115px">
	<g id="STATEOFIT">
		<path id="OpenQuote" d="M 23.125 32.9375 C 18.2813 30.5781 15.6563 27.6563 15.25 24.1563 C 14.8438 20.6719 15.7188 17.25 17.9063 13.875 C 18.125 13.5156 17.9531 13.1719 17.4219 12.8438 C 17.0313 12.6719 16.6719 12.7656 16.3594 13.125 C 14.3906 15.75 12.3438 19.0781 10.2344 23.1094 C 8.1094 27.1563 7.0625 30.6875 7.0625 33.6875 C 7.0625 34.0625 7.2031 34.3125 7.4844 34.4375 C 10.4844 35.9844 12.8438 38.3438 14.5313 41.5313 C 14.9844 42.4063 15.5 42.4063 16.0781 41.5313 C 17.9844 38.5938 20.3281 36.2344 23.125 34.4375 C 24.0938 33.7969 24.0938 33.2969 23.125 32.9375 L 23.125 32.9375 ZM 43.6875 32.9375 C 38.8438 30.5781 36.2188 27.6563 35.8125 24.1563 C 35.4063 20.6719 36.2969 17.25 38.4844 13.875 C 38.7031 13.5156 38.5313 13.1719 38 12.8438 C 37.5938 12.6719 37.2344 12.7656 36.9219 13.125 C 34.9531 15.75 32.9063 19.0781 30.7969 23.1094 C 28.6875 27.1563 27.6406 30.6875 27.6406 33.6875 C 27.6406 34.0625 27.7813 34.3125 28.0625 34.4375 C 31.0625 35.9844 33.4063 38.3438 35.0938 41.5313 C 35.5625 42.4063 36.0781 42.4063 36.6563 41.5313 C 38.5469 38.5938 40.8906 36.2344 43.6875 34.4375 C 44.6563 33.7969 44.6563 33.2969 43.6875 32.9375 L 43.6875 32.9375 Z" fill="#ff6600"/>
		<path id="S" d="M 66.5 25.9063 C 66.6719 26.6563 67.2188 26.8594 68.1563 26.5 C 72.8125 24.9219 77.0938 25.0938 81 27.0313 C 83.5625 28.4375 85.4219 30.2031 86.5781 32.3281 C 87.7188 34.4531 87.8125 36.5 86.8594 38.4688 C 85.8906 40.4063 83.7969 41.3594 80.5938 41.3281 C 77.3906 41.2969 73.3906 39.1406 68.5938 34.875 C 68.125 34.4531 67.75 34.3594 67.4688 34.6094 C 65.1719 36.9375 62.75 39.0469 60.1875 40.9219 C 57.625 42.7969 55.3125 44.875 53.2813 47.125 C 51.0938 49.5625 49.9375 52.3594 49.8125 55.5469 C 49.6875 58.7344 51.375 62.1563 54.8906 65.8125 C 56.2813 67.2813 57.2344 68.6094 57.7656 69.7656 C 58.2813 70.9219 57.7344 72.2656 56.125 73.7656 C 55.0938 74.7344 54.0469 75.7188 53.0156 76.7188 C 51.9688 77.7188 50.9688 78.7188 50.0156 79.7188 C 49.3594 80.5156 49.4219 81.0469 50.1719 81.3281 C 54.3281 82.7031 58.2656 84.125 62.0156 85.6094 C 65.75 87.0938 67.8594 88.8125 68.3281 90.7813 C 68.6094 92.2188 69.4063 92.2813 70.7344 91 C 73.4219 88.25 76.125 85.5156 78.875 82.8125 C 81.6094 80.1094 84.2031 77.25 86.6406 74.2344 C 88.3906 72.0625 88.8906 69.5469 88.1563 66.6719 C 87.4219 63.8125 84.6406 60.2813 79.8125 56.0938 C 78.2813 54.7344 78.4219 53.1875 80.25 51.4688 C 81.1719 50.6094 82.1563 49.7813 83.2031 49 C 84.2344 48.2188 85.5781 47.1094 87.2031 45.6719 C 88.8281 44.2344 89.7969 42.0313 90.125 39.0625 C 90.4375 36.0938 89.8125 33.4219 88.25 31.0156 C 86.6719 28.6094 84.4688 26.7344 81.6406 25.3594 C 77.4531 23.4375 72.8438 23.1406 67.8438 24.4531 C 66.7656 24.6719 66.3125 25.1563 66.5 25.9063 L 66.5 25.9063 ZM 66.8125 64.9531 C 68.6406 63.4844 70.1875 63.125 71.4375 63.875 C 79.5313 69.6406 82.4688 74.2969 80.25 77.8438 C 78.4531 80.6719 76.6563 81.6875 74.875 80.9063 C 72.2969 79.8438 69.7344 78.7344 67.1875 77.5781 C 64.6406 76.4375 62.0938 75.2656 59.5625 74.0781 C 58.9844 73.7656 58.875 73.2969 59.25 72.6875 L 66.8125 64.9531 L 66.8125 64.9531 ZM 58.0313 53.5156 C 55.6563 50.9375 55.6563 48.2344 58.0625 45.4063 C 59.9531 43.1875 61.5156 42.4688 62.7344 43.25 C 63.9531 44.0469 66.5469 45.5625 70.5313 47.8125 C 73 49.1875 75.25 49.9688 77.2969 50.1719 C 77.7188 50.2188 78 50.3906 78.125 50.6875 C 78.25 51 78.1406 51.3281 77.8281 51.6875 L 67.8438 61.4531 C 67.4688 61.8281 67.0781 61.8438 66.6563 61.5156 C 63.2813 58.7656 60.4063 56.0938 58.0313 53.5156 L 58.0313 53.5156 Z" fill="#ff6600"/>
		<path id="T" d="M 114.5938 46.3125 L 123.875 46.3125 C 124.4063 46.3125 124.7188 46.0313 124.7969 45.4531 L 125.0156 41.4219 C 125.0156 41.2188 124.9219 40.9844 124.7344 40.7188 C 124.5469 40.5469 124.3438 40.4531 124.0938 40.4531 L 114.7969 40.4531 C 114.5156 40.4531 114.2656 40.3594 114.0469 40.1406 C 114.0156 39.9531 114 39.6875 114 39.3281 C 114.3438 36.6406 115.3594 33.6719 117.0313 30.4219 C 118.6875 27.1719 120.3438 24.5156 122 22.4688 C 122.4219 21.9063 122.4063 21.4688 121.9688 21.1563 C 121.5156 20.8438 121.0625 20.9375 120.6094 21.4375 C 116.9531 25.3125 112.9063 29.4063 108.4688 33.7031 C 104.0313 38 99.6563 41.6719 95.375 44.7031 C 94.9063 44.9844 94.7344 45.3281 94.8906 45.7188 C 95.0156 46.125 95.3438 46.3125 95.8594 46.3125 L 102.1875 46.3125 C 102.75 46.3125 103.0313 46.6406 103 47.2813 L 103.0469 76.3438 C 103.0781 79.8906 101.9063 81.9531 99.5 82.5156 C 99.0313 82.7031 98.8281 83 98.8594 83.4375 C 98.8906 83.875 99.2031 84.1406 99.7813 84.2344 C 103.1875 85.0625 105.7656 86.0625 107.5156 87.25 C 109.2656 88.4375 111.1563 90.2031 113.1875 92.5625 C 113.9063 93.3125 114.5625 93.3125 115.1875 92.5625 C 117.1094 88.5156 119.9844 84.3906 123.8281 80.2031 C 124.3281 79.6719 124.2969 79.2344 123.75 78.9219 C 123.1875 78.6094 122.75 78.6719 122.4375 79.125 C 120.6719 81.5 119.4219 82.3594 118.6719 81.7031 L 114.8125 79.5 C 114.2656 79.1563 114 78.4219 114 77.2969 L 114 47.2188 C 114 46.625 114.1875 46.3125 114.5938 46.3125 L 114.5938 46.3125 Z" fill="#ff6600"/>
		<path id="A" d="M 156 82.2656 C 156.2813 82.4844 156.4688 82.7031 156.5469 82.9063 C 157.625 87.4219 160.2188 90.1094 164.3438 91.0156 C 164.875 91.1563 165.3438 91.4375 165.75 91.875 C 166.4688 92.6875 167.0938 92.6875 167.5938 91.875 L 167.6563 91.8281 C 168.4688 89.8281 169.4844 87.8906 170.6875 86.0313 C 171.875 84.1719 173.125 82.2656 174.4219 80.3281 C 174.8906 79.5469 174.875 79.0156 174.3906 78.7031 C 173.9063 78.3906 173.3906 78.5469 172.8594 79.1563 C 171.4531 80.6875 170.1563 81.1563 168.9688 80.5469 C 167.7656 79.9531 167.1719 78.8125 167.1719 77.1563 L 167 52.6094 L 167 52.5156 C 167.1406 50.7344 168.0625 49.2188 169.75 48 C 171.0938 46.9688 170.9219 46.2813 169.2031 45.9531 C 163.7188 44.8594 158.2344 41.2188 152.7656 35.0469 C 151.7656 34.0156 150.9688 34.0625 150.4063 35.1563 C 149 37.6719 147.4063 39.8125 145.5938 41.5625 C 143.7813 43.3125 141.8438 44.9844 139.7813 46.5469 C 133 51.7344 129.5156 58.0938 129.2969 65.6094 C 129.0781 74.3906 131.8906 81.5156 137.7344 86.9844 C 139.9531 89.1094 141.0625 90.5313 141.0625 91.2813 C 140.9844 91.8438 141.1406 92.1719 141.5156 92.25 C 141.8906 92.3125 142.3906 92.1094 143.0469 91.6094 C 144.9063 90.2031 146.9219 88.6875 149.1094 87.0156 C 151.2969 85.3594 153.2969 83.8281 155.1406 82.4219 C 155.3906 82.2969 155.6719 82.2344 156 82.2656 L 156 82.2656 ZM 156.4219 51.6563 L 156 76.2969 L 156 78.8281 C 156 79.0156 155.9375 79.2031 155.8438 79.4219 C 153.7656 81.6406 152 82.5156 150.5313 82.0469 C 150.4844 82.0156 150.4531 82 150.4219 82 C 144.6875 79.7188 141.25 73.6719 140.1094 63.8906 C 139.2813 57.0625 140.7656 50.8125 144.5625 45.1563 C 145.4219 43.7656 146.5625 43.9219 148 45.6406 C 150.9688 48.4688 153.5625 50.1875 155.7813 50.7969 C 156.2031 50.9375 156.4219 51.2188 156.4219 51.6563 L 156.4219 51.6563 Z" fill="#ff6600"/>
		<path id="T2" d="M 199.5938 46.3125 L 208.875 46.3125 C 209.4063 46.3125 209.7188 46.0313 209.7969 45.4531 L 210.0156 41.4219 C 210.0156 41.2188 209.9219 40.9844 209.7344 40.7188 C 209.5469 40.5469 209.3438 40.4531 209.0938 40.4531 L 199.7969 40.4531 C 199.5156 40.4531 199.2656 40.3594 199.0469 40.1406 C 199.0156 39.9531 199 39.6875 199 39.3281 C 199.3438 36.6406 200.3594 33.6719 202.0313 30.4219 C 203.6875 27.1719 205.3438 24.5156 207 22.4688 C 207.4219 21.9063 207.4063 21.4688 206.9688 21.1563 C 206.5156 20.8438 206.0625 20.9375 205.6094 21.4375 C 201.9531 25.3125 197.9063 29.4063 193.4688 33.7031 C 189.0313 38 184.6563 41.6719 180.375 44.7031 C 179.9063 44.9844 179.7344 45.3281 179.8906 45.7188 C 180.0156 46.125 180.3438 46.3125 180.8594 46.3125 L 187.1875 46.3125 C 187.75 46.3125 188.0313 46.6406 188 47.2813 L 188.0469 76.3438 C 188.0781 79.8906 186.9063 81.9531 184.5 82.5156 C 184.0313 82.7031 183.8281 83 183.8594 83.4375 C 183.8906 83.875 184.2031 84.1406 184.7813 84.2344 C 188.1875 85.0625 190.7656 86.0625 192.5156 87.25 C 194.2656 88.4375 196.1563 90.2031 198.1875 92.5625 C 198.9063 93.3125 199.5625 93.3125 200.1875 92.5625 C 202.1094 88.5156 204.9844 84.3906 208.8281 80.2031 C 209.3281 79.6719 209.2969 79.2344 208.75 78.9219 C 208.1875 78.6094 207.75 78.6719 207.4375 79.125 C 205.6719 81.5 204.4219 82.3594 203.6719 81.7031 L 199.8125 79.5 C 199.2656 79.1563 199 78.4219 199 77.2969 L 199 47.2188 C 199 46.625 199.1875 46.3125 199.5938 46.3125 L 199.5938 46.3125 Z" fill="#ff6600"/>
		<path id="E" d="M 231.2031 93.2031 C 231.8281 93.2656 232.2969 93.2031 232.625 92.9844 C 234.6875 91.2969 237.0469 89.7031 239.6875 88.1563 C 242.3125 86.625 245.0781 85.1094 247.9844 83.6406 C 248.4531 83.4219 248.5781 83.1094 248.3906 82.6719 C 248.1875 82.25 247.7344 82.2031 247.0156 82.5156 C 242.9219 84.0938 238.8281 83.7656 234.7188 81.5156 C 230.5938 79.2813 227.6563 74.1875 225.9063 66.2344 C 225.8281 65.7813 226.0156 65.4375 226.4531 65.2188 L 248.4688 56.6719 L 248.5781 56.6719 C 249.1719 56.4219 249.2969 55.8281 248.9531 54.8594 L 241.2188 36.7031 C 240.7813 35.6406 240.125 35.1875 239.2344 35.3594 C 236.3281 36.1094 233.4844 37.0938 230.7344 38.2813 C 227.9844 39.4844 225.5469 41.0313 223.4375 42.9219 C 217.5 48.2656 214.7344 56.0469 215.1719 66.2344 C 215.375 70.75 216.3281 75.0156 218.0313 79.0469 C 219.7344 83.0781 222.6406 86.5 226.7656 89.2813 C 227.3281 89.7188 228.0469 90.1406 228.8906 90.5781 C 229.7344 91 230.1875 91.6406 230.2656 92.5 C 230.2656 92.8906 230.5781 93.125 231.2031 93.2031 L 231.2031 93.2031 ZM 225.6406 49.375 C 226.3906 45.0469 227.7969 42.2656 229.8906 41.0469 C 230.8594 40.4844 231.5 40.5938 231.8125 41.375 L 238.375 57.4375 C 238.5781 57.9688 238.4219 58.3438 237.8906 58.5625 L 226.4531 62.8594 C 226.125 63 225.8594 62.9844 225.6406 62.8281 C 225.4219 62.6719 225.2969 62.4531 225.2656 62.1563 C 224.7656 57.9688 224.8906 53.7188 225.6406 49.375 L 225.6406 49.375 Z" fill="#ff6600"/>
		<path id="O" d="M 311.25 83.9844 C 313.9375 82.4219 316.4375 80.4844 318.7813 78.1875 C 320.75 76.25 322.5 74.1406 324.0313 71.8281 C 325.5625 69.5156 326.5156 66.9063 326.8906 64 C 327.1406 61.5313 326.6719 58.4375 325.5156 54.7188 C 324.3438 51 322.8906 48.0625 321.1406 45.9063 C 317.9531 42.1875 316.0469 38.3906 315.4531 34.5156 C 315.4063 34.0938 315.25 33.8438 314.9844 33.7656 C 314.7188 33.7031 314.4219 33.75 314.1094 33.9219 C 306.6875 38.3281 298.2188 40.9375 288.7031 41.7188 C 288.3281 41.75 288.0938 41.875 287.9688 42.0625 C 287.8438 42.2656 287.8125 42.4844 287.8906 42.7188 C 287.9531 42.9531 288 43.2656 288 43.6406 L 288.1563 71.0469 C 288.1563 75.0156 287 77.4063 284.7188 78.1875 C 284.3281 78.375 284.125 78.6563 284.1094 79.0469 C 284.0781 79.4531 284.3906 79.7344 285.0469 79.9063 C 293.0625 82.375 299.0469 86.0625 302.9844 90.9688 C 303.7656 91.8594 304.4375 91.8594 304.9688 90.9688 C 306.4688 87.8906 308.5625 85.5625 311.25 83.9844 L 311.25 83.9844 ZM 299.6094 42.0313 C 300.7031 41.75 301.7969 41.4219 302.9063 41.0156 C 303.125 40.9219 303.3594 40.9219 303.625 41.0469 C 303.875 41.1719 304.0469 41.3281 304.125 41.5 C 305.625 45.6875 307.7969 49.2031 310.6719 52.0313 C 312.4219 53.9688 313.9063 56.1875 315.0938 58.6875 C 316.2813 61.2031 316.9219 64.0469 317 67.2188 C 317.3125 72.3438 315.7344 76.7344 312.2656 80.3906 C 311.4531 81.3594 310.5781 81.5313 309.625 80.9219 L 299.875 75.0156 C 299.4375 74.7969 299.2188 74.4219 299.2188 73.8906 L 299 42.9531 C 299 42.4844 299.2031 42.1875 299.6094 42.0313 L 299.6094 42.0313 Z" fill="#ff6600"/>
		<path id="F" d="M 345.375 36.4063 C 344.6875 35.625 343.25 34.6094 341.0313 33.3906 C 338.7344 32.2188 337.9531 29.7031 338.6875 25.8594 C 339.4219 22.0156 341.8906 21.0469 346.0781 22.9688 C 350.4063 25.0625 353.5938 25.3906 355.6563 23.9688 C 357.7188 22.5625 359.3906 19.8125 360.6875 15.7188 C 361.1406 14.4375 361.1875 13.75 360.8438 13.6406 C 360.4844 13.5313 360.0938 13.8438 359.6563 14.5938 C 358.75 16 357.2188 16.3594 355.0625 15.7031 C 352.9063 15.0469 350.5156 14.2656 347.9063 13.3594 C 343.1719 11.8281 340.0156 12.7813 338.4375 16.2344 C 336.8594 19.7031 336.2031 23.9688 336.4531 29.0469 C 336.6719 32.2656 336 34.875 334.4688 36.8438 C 332.9219 38.8281 330.9844 40.0156 328.6719 40.3906 C 328.25 40.4531 328.0469 40.75 328.0469 41.25 C 328.0781 41.75 328.3594 42 328.8906 42 L 335.1094 42 C 336.1406 52.9688 337.125 63.9063 338.0625 74.8125 L 340.8125 107.625 C 340.9531 108.9375 341.3125 109.5938 341.8906 109.5938 C 342.4531 109.5625 342.8125 108.9531 342.9531 107.7344 L 348.3906 51.2344 C 348.7031 47.6563 348.75 44.8594 348.5469 42.8594 C 348.4688 42.6406 348.5313 42.4531 348.7344 42.2656 C 348.9219 42.0938 349.1563 42 349.4063 42 L 355.9063 42 C 356.4688 42 356.7656 41.7188 356.7656 41.1563 L 356.7656 37.8438 C 356.7656 37.2813 356.4688 37 355.9063 37 L 346.6094 37 C 346.1719 37 345.7656 36.8125 345.375 36.4063 L 345.375 36.4063 Z" fill="#ff6600"/>
		<path id="I" d="M 399.75 86.7656 C 401.3438 88.9844 403.7031 90.8594 406.8438 92.3906 C 407.8281 92.9531 408.6563 92.75 409.3438 91.75 C 410.3125 90.0781 411.25 88.3906 412.1875 86.6875 C 413.125 84.9844 414.125 83.2813 415.2031 81.5938 C 415.7344 80.75 415.7344 80.125 415.2188 79.75 C 414.7031 79.375 414.2656 79.5313 413.9063 80.2031 C 412.9063 81.9219 411.6094 82.3281 410.0469 81.3906 C 408.6719 80.5781 408 78.3281 408 74.6719 L 408 51.9531 C 408 49.9219 408.3594 48.4531 409.0781 47.5781 C 409.7969 46.7031 410.6094 46.0938 411.5469 45.7188 C 411.9375 45.6875 412.1719 45.4844 412.2656 45.0781 C 412.3594 44.6875 412.0313 44.3438 411.2813 44.0625 C 408.625 42.5313 406.6094 41.0625 405.2188 39.6875 C 403.8125 38.3125 402.3906 36.7031 400.9219 34.875 C 400.1875 34.1563 399.5469 34.1406 398.9844 34.8125 C 397.6875 36.75 396.4219 38.7031 395.1719 40.6719 C 393.9219 42.6406 392.5 44.6094 390.9375 46.5781 C 390.25 47.4844 390.1563 48.1719 390.6875 48.6719 C 391.2031 49.1719 391.75 49.1094 392.3281 48.4531 L 394.4844 46.2656 C 395.0781 45.5469 395.8125 45.8906 396.6875 47.2813 C 396.8906 47.7188 397 48.2656 397 48.9375 L 397.3594 78.375 C 397.3594 81.75 398.1563 84.5469 399.75 86.7656 L 399.75 86.7656 ZM 399.8438 16.2656 C 398.3438 17.3594 397.5469 18.7344 397.4531 20.375 C 397.2969 22.0938 397.5625 23.9844 398.25 26.0156 C 398.9375 28.0625 399.9219 29.0781 401.2188 29.0781 C 402.5 29.1094 404.2344 28.1563 406.4375 26.2031 C 408.6406 24.25 409.8594 22.3125 410.0781 20.375 C 410.4219 16.5469 408.625 14.625 404.6563 14.625 C 402.9375 14.625 401.3281 15.1719 399.8438 16.2656 L 399.8438 16.2656 Z" fill="#ff6600"/>
		<path id="T3" d="M 439.5938 46.3125 L 448.875 46.3125 C 449.4063 46.3125 449.7188 46.0313 449.7969 45.4531 L 450.0156 41.4219 C 450.0156 41.2188 449.9219 40.9844 449.7344 40.7188 C 449.5469 40.5469 449.3438 40.4531 449.0938 40.4531 L 439.7969 40.4531 C 439.5156 40.4531 439.2656 40.3594 439.0469 40.1406 C 439.0156 39.9531 439 39.6875 439 39.3281 C 439.3438 36.6406 440.3594 33.6719 442.0313 30.4219 C 443.6875 27.1719 445.3438 24.5156 447 22.4688 C 447.4219 21.9063 447.4063 21.4688 446.9688 21.1563 C 446.5156 20.8438 446.0625 20.9375 445.6094 21.4375 C 441.9531 25.3125 437.9063 29.4063 433.4688 33.7031 C 429.0313 38 424.6563 41.6719 420.375 44.7031 C 419.9063 44.9844 419.7344 45.3281 419.8906 45.7188 C 420.0156 46.125 420.3438 46.3125 420.8594 46.3125 L 427.1875 46.3125 C 427.75 46.3125 428.0313 46.6406 428 47.2813 L 428.0469 76.3438 C 428.0781 79.8906 426.9063 81.9531 424.5 82.5156 C 424.0313 82.7031 423.8281 83 423.8594 83.4375 C 423.8906 83.875 424.2031 84.1406 424.7813 84.2344 C 428.1875 85.0625 430.7656 86.0625 432.5156 87.25 C 434.2656 88.4375 436.1563 90.2031 438.1875 92.5625 C 438.9063 93.3125 439.5625 93.3125 440.1875 92.5625 C 442.1094 88.5156 444.9844 84.3906 448.8281 80.2031 C 449.3281 79.6719 449.2969 79.2344 448.75 78.9219 C 448.1875 78.6094 447.75 78.6719 447.4375 79.125 C 445.6719 81.5 444.4219 82.3594 443.6719 81.7031 L 439.8125 79.5 C 439.2656 79.1563 439 78.4219 439 77.2969 L 439 47.2188 C 439 46.625 439.1875 46.3125 439.5938 46.3125 L 439.5938 46.3125 Z" fill="#ff6600"/>
		<path id="CloseQuote" d="M 476.5938 22.4688 C 481.4219 24.8438 484.0469 27.7656 484.4688 31.25 C 484.875 34.75 484 38.1719 481.8125 41.5313 C 481.5938 41.8906 481.75 42.2344 482.2969 42.5469 C 482.6875 42.7344 483.0469 42.6563 483.375 42.2813 C 485.3438 39.6719 487.375 36.3438 489.4844 32.2969 C 491.5938 28.25 492.6563 24.7188 492.6563 21.7188 C 492.6563 21.3594 492.5156 21.1094 492.2344 20.9531 C 489.2188 19.4219 486.875 17.0625 485.1875 13.875 C 484.7188 13.0156 484.2031 13.0156 483.6406 13.875 C 481.7344 16.8125 479.3906 19.1719 476.5938 20.9531 C 475.625 21.6094 475.625 22.1094 476.5938 22.4688 L 476.5938 22.4688 ZM 456.0313 22.4688 C 460.8594 24.8438 463.4844 27.7656 463.8906 31.25 C 464.2969 34.75 463.4219 38.1719 461.2344 41.5313 C 461.0156 41.8906 461.1875 42.2344 461.7188 42.5469 C 462.1094 42.7344 462.4688 42.6563 462.7969 42.2813 C 464.7656 39.6719 466.7969 36.3438 468.9219 32.2969 C 471.0313 28.25 472.0938 24.7188 472.0938 21.7188 C 472.0938 21.3594 471.9375 21.1094 471.6563 20.9531 C 468.6406 19.4219 466.2969 17.0625 464.625 13.875 C 464.1563 13.0156 463.625 13.0156 463.0625 13.875 C 461.1563 16.8125 458.8125 19.1719 456.0313 20.9531 C 455.0625 21.6094 455.0625 22.1094 456.0313 22.4688 L 456.0313 22.4688 Z" fill="#ff6600"/>
	</g>
</svg>